<svg width="141" height="143" viewBox="0 0 141 143" fill="none" xmlns="http://www.w3.org/2000/svg">
<g id="freepik--Desk--inject-147">
<g id="freepik--desk--inject-147">
<g id="freepik--desk--inject-147_2">
<path id="Vector" d="M134.49 68.8999L82.1001 38.6599V41.1499L134.49 71.3899V68.8999Z" fill="#040404"/>
<path id="Vector_2" d="M134.49 66.4199L82.1001 36.1699V38.6599L134.49 68.8999V66.4199Z" fill="#0D8F6A"/>
<path id="Vector_3" d="M58.29 110.4L9.68002 82.3298L7.79004 83.7299L58.29 112.89V110.4Z" fill="#0D8F6A"/>
<path id="Vector_4" d="M58.2902 85.1298V142.26L56.4001 141.18V84.0398L58.2902 85.1298Z" fill="#040404"/>
<path id="Vector_5" d="M58.29 85.1298V142.26L60.18 141.18V84.0398L58.29 85.1298Z" fill="#0D8F6A"/>
<path id="Vector_6" d="M7.79016 55.9699V113.11L5.90015 112.02V54.8799L7.79016 55.9699Z" fill="#040404"/>
<path id="Vector_7" d="M7.79004 55.9699V113.11L9.68002 112.02V54.8799L7.79004 55.9699Z" fill="#0D8F6A"/>
<path id="Vector_8" d="M58.2902 112.89L5.90015 82.6399V85.1299L58.2902 115.38V112.89Z" fill="#040404"/>
<path id="Vector_9" d="M132.6 42.2399V99.3699L130.71 98.2799V41.1499L132.6 42.2399Z" fill="#040404"/>
<path id="Vector_10" d="M132.6 42.2399V99.3699L134.49 98.2799V41.1499L132.6 42.2399Z" fill="#0D8F6A"/>
<path id="Vector_11" d="M58.2902 75.0498V88.4898L5.90015 58.2498V44.7998L58.2902 75.0498Z" fill="#0D8F6A"/>
<path id="Vector_12" d="M58.29 88.4898L134.49 44.5098V37.7898L58.29 81.7698V88.4898Z" fill="#455A64"/>
<g id="freepik--desk--inject-147_3">
<path id="Vector_13" d="M58.2901 81.7698L0.0800781 48.1598L82.1001 0.819824L140.31 34.4198L58.2901 81.7698Z" fill="#93FF91"/>
<path id="Vector_14" opacity="0.7" d="M58.2901 81.7698L0.0800781 48.1598L82.1001 0.819824L140.31 34.4198L58.2901 81.7698Z" fill="white"/>
<path id="Vector_15" d="M0.0800781 48.1599V51.5199L58.2901 85.1299V81.7699L0.0800781 48.1599Z" fill="#93FF91"/>
<path id="Vector_16" opacity="0.25" d="M0.0800781 48.1599V51.5199L58.2901 85.1299V81.7699L0.0800781 48.1599Z" fill="white"/>
<path id="Vector_17" d="M58.29 85.1299L140.31 37.7899V34.4199L58.29 81.7699V85.1299Z" fill="#93FF91"/>
<path id="Vector_18" opacity="0.4" d="M58.29 85.1299L140.31 37.7899V34.4199L58.29 81.7699V85.1299Z" fill="white"/>
</g>
</g>
<g id="freepik--Pen--inject-147">
<path id="Vector_19" opacity="0.2" d="M38.26 36L16.68 48.47L12.99 49.22C12.969 49.2219 12.9479 49.2183 12.9287 49.2095C12.9095 49.2007 12.893 49.1869 12.8808 49.1697C12.8687 49.1524 12.8613 49.1323 12.8594 49.1113C12.8575 49.0902 12.8611 49.0691 12.87 49.0499L14.03 46.93L35.61 34.46C36.34 34 38.83 35.67 38.26 36Z" fill="black"/>
<g id="freepik--pen--inject-147">
<path id="Vector_20" d="M35.7002 32.9399C35.72 33.2836 35.8209 33.6178 35.9947 33.915C36.1685 34.2122 36.4103 34.4641 36.7002 34.6499C36.8679 34.761 37.0718 34.8039 37.2701 34.7699L37.1602 34.8499L37.4001 34.7199C37.4327 34.6733 37.4596 34.6229 37.4802 34.5699C37.4802 34.5699 37.4802 34.5699 37.4802 34.5199C37.4849 34.5035 37.4849 34.4862 37.4802 34.4699C37.4911 34.3903 37.4911 34.3095 37.4802 34.2299C37.462 33.8858 37.3617 33.551 37.1877 33.2535C37.0138 32.956 36.7712 32.7045 36.4802 32.5199C36.3497 32.4325 36.1971 32.384 36.0402 32.3799H35.8601L35.6501 32.4999H35.7602C35.6974 32.6375 35.6765 32.7905 35.7002 32.9399Z" fill="#93FF91"/>
<path id="Vector_21" d="M15.1602 44.3199L16.5602 46.7399L16.8001 46.6099L37.1501 34.8499L37.2602 34.7699C37.3874 34.6119 37.4515 34.4124 37.4402 34.2099C37.4204 33.8661 37.3194 33.532 37.1456 33.2347C36.9718 32.9375 36.73 32.6857 36.4402 32.4999C36.307 32.4197 36.1555 32.3749 36.0002 32.3699H35.8802H35.7701L15.1602 44.3199Z" fill="#F0F0F0"/>
<path id="Vector_22" d="M15.8601 44.3899C15.3201 44.0699 14.8601 44.3299 14.8601 44.9599C14.8815 45.3032 14.9831 45.6368 15.1568 45.9338C15.3304 46.2308 15.5713 46.4829 15.8601 46.6699C16.4101 46.9899 16.8601 46.7299 16.8601 46.0999C16.8419 45.7557 16.7417 45.4209 16.5677 45.1235C16.3938 44.826 16.1511 44.5745 15.8601 44.3899Z" fill="#93FF91"/>
<path id="Vector_23" d="M13.74 45.8599L15 44.4699C15.1127 44.3815 15.2518 44.3335 15.395 44.3335C15.5382 44.3335 15.6773 44.3815 15.79 44.4699C16.081 44.6545 16.3236 44.9061 16.4976 45.2036C16.6715 45.501 16.7718 45.8358 16.79 46.1799C16.8086 46.3191 16.7816 46.4606 16.7131 46.5832C16.6446 46.7057 16.5383 46.8028 16.41 46.8599H16.34L14.52 47.2599C14.4083 47.2797 14.2933 47.2546 14.2 47.1899C14.0312 47.0817 13.8912 46.9342 13.7919 46.7601C13.6926 46.5859 13.6371 46.3903 13.63 46.1899C13.6249 46.1303 13.6321 46.0703 13.651 46.0136C13.6699 45.9569 13.7002 45.9046 13.74 45.8599Z" fill="#E0E0E0"/>
<path id="Vector_24" d="M29.9001 36.8498C29.9357 36.8314 29.9751 36.8218 30.0152 36.8218C30.0552 36.8218 30.0946 36.8314 30.1302 36.8498C30.2316 36.9175 30.316 37.0078 30.3768 37.1137C30.4375 37.2195 30.4729 37.338 30.4802 37.4598C30.4834 37.4985 30.4779 37.5375 30.464 37.5739C30.4502 37.6102 30.4283 37.643 30.4001 37.6698L15.4001 46.3398L14.4001 45.7698L29.9001 36.8498Z" fill="#455A64"/>
<path id="Vector_25" d="M16.7601 45.58L15.3701 46.38L14.3701 45.81L16.2601 44.72C16.4892 44.9655 16.66 45.2594 16.7601 45.58Z" fill="#0D8F6A"/>
<path id="Vector_26" d="M13.24 46.5199L14.38 45.2699C14.458 45.203 14.5573 45.1663 14.66 45.1663C14.7627 45.1663 14.8621 45.203 14.94 45.2699C15.145 45.4009 15.3156 45.5791 15.4374 45.7897C15.5592 46.0002 15.6287 46.2369 15.64 46.4799C15.6528 46.5783 15.6335 46.6783 15.5848 46.7648C15.5361 46.8513 15.4608 46.9197 15.37 46.9599H15.32L13.64 47.3299C13.5821 47.3522 13.5179 47.3522 13.46 47.3299C13.3665 47.2706 13.2885 47.1897 13.2328 47.094C13.1771 46.9983 13.1453 46.8905 13.14 46.7799C13.126 46.7316 13.1281 46.68 13.1462 46.6331C13.1642 46.5861 13.1972 46.5463 13.24 46.5199Z" fill="#93FF91"/>
<path id="Vector_27" opacity="0.1" d="M13.24 46.5199L14.38 45.2699C14.458 45.203 14.5573 45.1663 14.66 45.1663C14.7627 45.1663 14.8621 45.203 14.94 45.2699C15.145 45.4009 15.3156 45.5791 15.4374 45.7897C15.5592 46.0002 15.6287 46.2369 15.64 46.4799C15.6528 46.5783 15.6335 46.6783 15.5848 46.7648C15.5361 46.8513 15.4608 46.9197 15.37 46.9599H15.32L13.64 47.3299C13.5821 47.3522 13.5179 47.3522 13.46 47.3299C13.3665 47.2706 13.2885 47.1897 13.2328 47.094C13.1771 46.9983 13.1453 46.8905 13.14 46.7799C13.126 46.7316 13.1281 46.68 13.1462 46.6331C13.1642 46.5861 13.1972 46.5463 13.24 46.5199Z" fill="black"/>
<path id="Vector_28" d="M13.18 46.7C13.1853 46.8106 13.2171 46.9183 13.2728 47.0141C13.3285 47.1098 13.4064 47.1907 13.5 47.25C13.5579 47.2723 13.622 47.2723 13.68 47.25L14.52 47.06C14.66 47.06 14.75 46.91 14.75 46.71C14.7396 46.5323 14.6882 46.3594 14.5997 46.205C14.5112 46.0505 14.3881 45.9187 14.24 45.82C14.1809 45.7754 14.109 45.7512 14.035 45.7512C13.961 45.7512 13.889 45.7754 13.83 45.82L13.26 46.44C13.2207 46.4692 13.1918 46.5101 13.1774 46.5569C13.163 46.6036 13.1639 46.6538 13.18 46.7Z" fill="#93FF91"/>
<path id="Vector_29" opacity="0.1" d="M13.5002 46.5099C13.3202 46.4099 13.1802 46.5099 13.1802 46.6999C13.1855 46.8105 13.2173 46.9182 13.273 47.014C13.3287 47.1097 13.4066 47.1906 13.5002 47.2499C13.6702 47.3499 13.8102 47.2499 13.8102 47.0599C13.8044 46.9505 13.7734 46.8439 13.7197 46.7485C13.6659 46.6531 13.5908 46.5714 13.5002 46.5099Z" fill="black"/>
<path id="Vector_30" d="M33.64 34.6899C33.6776 34.6669 33.7209 34.6548 33.765 34.6548C33.8091 34.6548 33.8523 34.6669 33.89 34.6899C33.9912 34.7555 34.0756 34.844 34.1364 34.9482C34.1972 35.0524 34.2327 35.1695 34.2399 35.2899C34.2431 35.3335 34.2357 35.3772 34.2183 35.4172C34.2008 35.4573 34.174 35.4925 34.14 35.5199L30.4399 37.6499C30.4681 37.6231 30.4899 37.5903 30.5038 37.554C30.5176 37.5176 30.5231 37.4787 30.5199 37.4399C30.5127 37.3181 30.4773 37.1996 30.4166 37.0938C30.3558 36.988 30.2714 36.8976 30.17 36.8299C30.1344 36.8115 30.095 36.8019 30.0549 36.8019C30.0149 36.8019 29.9755 36.8115 29.9399 36.8299L33.64 34.6899Z" fill="#FAFAFA"/>
<path id="Vector_31" d="M33.54 34.9199C33.5473 35.0404 33.5827 35.1574 33.6435 35.2616C33.7043 35.3658 33.7888 35.4543 33.89 35.5199C33.9283 35.5409 33.9713 35.5519 34.015 35.5519C34.0587 35.5519 34.1017 35.5409 34.14 35.5199C34.1741 35.4925 34.2009 35.4573 34.2183 35.4172C34.2358 35.3772 34.2432 35.3335 34.24 35.2899C34.2328 35.1695 34.1973 35.0524 34.1365 34.9482C34.0757 34.844 33.9913 34.7555 33.89 34.6899C33.8524 34.6669 33.8091 34.6548 33.765 34.6548C33.7209 34.6548 33.6777 34.6669 33.64 34.6899C33.606 34.7173 33.5791 34.7525 33.5617 34.7926C33.5443 34.8327 33.5368 34.8764 33.54 34.9199Z" fill="#F5F5F5"/>
<path id="Vector_32" d="M34.3201 33.42L35.7801 32.5799C35.8782 32.5413 35.9842 32.5275 36.0889 32.5397C36.1936 32.5519 36.2936 32.5898 36.3801 32.6499C36.6385 32.8216 36.8534 33.051 37.0079 33.32C37.1624 33.589 37.2521 33.8903 37.2701 34.2C37.2813 34.3095 37.2631 34.42 37.2174 34.5202C37.1717 34.6204 37.1002 34.7066 37.0101 34.7699L35.5301 35.63C35.4302 35.6736 35.3208 35.691 35.2123 35.6805C35.1038 35.67 34.9998 35.6319 34.9101 35.57C34.6517 35.3983 34.4368 35.1689 34.2823 34.8999C34.1279 34.6309 34.0381 34.3296 34.0201 34.0199C34.0085 33.9018 34.0305 33.7829 34.0836 33.6767C34.1367 33.5706 34.2187 33.4816 34.3201 33.42Z" fill="#93FF91"/>
<path id="Vector_33" opacity="0.05" d="M34.3201 33.42L35.7801 32.5799C35.8782 32.5413 35.9842 32.5275 36.0889 32.5397C36.1936 32.5519 36.2936 32.5898 36.3801 32.6499C36.6385 32.8216 36.8534 33.051 37.0079 33.32C37.1624 33.589 37.2521 33.8903 37.2701 34.2C37.2813 34.3095 37.2631 34.42 37.2174 34.5202C37.1717 34.6204 37.1002 34.7066 37.0101 34.7699L35.5301 35.63C35.4302 35.6736 35.3208 35.691 35.2123 35.6805C35.1038 35.67 34.9998 35.6319 34.9101 35.57C34.6517 35.3983 34.4368 35.1689 34.2823 34.8999C34.1279 34.6309 34.0381 34.3296 34.0201 34.0199C34.0085 33.9018 34.0305 33.7829 34.0836 33.6767C34.1367 33.5706 34.2187 33.4816 34.3201 33.42Z" fill="black"/>
<path id="Vector_34" opacity="0.1" d="M35.0001 33.4699C34.5101 33.1899 34.1101 33.4199 34.1101 33.9799C34.1281 34.2896 34.2179 34.5908 34.3723 34.8599C34.5268 35.1289 34.7417 35.3583 35.0001 35.5299C35.4901 35.8099 35.8901 35.5799 35.8901 35.0099C35.8706 34.702 35.7801 34.4027 35.6257 34.1355C35.4713 33.8684 35.2572 33.6405 35.0001 33.4699Z" fill="black"/>
<path id="Vector_35" d="M12.7701 47.0499L13.3801 46.6799C13.3801 46.6799 13.4501 46.6799 13.5001 46.6799C13.548 46.7119 13.5875 46.755 13.6154 46.8055C13.6432 46.8559 13.6586 46.9123 13.6601 46.9699C13.6614 46.9896 13.6575 47.0092 13.6487 47.0268C13.6399 47.0444 13.6266 47.0593 13.6101 47.0699L13.0101 47.4299C12.9741 47.4402 12.936 47.4402 12.9001 47.4299C12.8509 47.43 12.803 47.4143 12.7633 47.3852C12.7237 47.356 12.6945 47.3149 12.68 47.2679C12.6654 47.221 12.6663 47.1706 12.6825 47.1241C12.6987 47.0777 12.7294 47.0377 12.7701 47.0099V47.0499Z" fill="#455A64"/>
<path id="Vector_36" d="M12.7401 47.0699C12.7568 47.0603 12.7758 47.0552 12.7951 47.0552C12.8144 47.0552 12.8334 47.0603 12.8501 47.0699C12.8974 47.1025 12.9366 47.1457 12.9643 47.196C12.9921 47.2464 13.0078 47.3024 13.0101 47.3599C13.018 47.3754 13.0221 47.3925 13.0221 47.4099C13.0221 47.4273 13.018 47.4444 13.0101 47.4599H12.9101C12.8799 47.4599 12.85 47.454 12.8221 47.4424C12.7942 47.4309 12.7688 47.4139 12.7475 47.3925C12.7261 47.3712 12.7091 47.3458 12.6976 47.3179C12.686 47.29 12.6801 47.2601 12.6801 47.2299C12.6783 47.2005 12.6827 47.1711 12.6931 47.1435C12.7034 47.116 12.7194 47.0909 12.7401 47.0699Z" fill="#040404"/>
</g>
</g>
<g id="freepik--Pencil--inject-147">
<path id="freepik--shadow--inject-147" opacity="0.2" d="M20.8901 51.4099C21.1601 52.1399 21.8901 52.5899 23.2301 52.7599L46.2301 39.3298L48.6301 36.8999C48.6619 36.8714 48.6825 36.8327 48.6884 36.7905C48.6943 36.7483 48.685 36.7054 48.6622 36.6694C48.6394 36.6334 48.6046 36.6066 48.5639 36.5939C48.5232 36.5812 48.4794 36.5833 48.4401 36.5999L44.0301 38.0599L20.8901 51.4099Z" fill="black"/>
<path id="Vector_37" d="M44.25 36.4198L48.17 35.6497C48.1957 35.6417 48.2233 35.6426 48.2485 35.6521C48.2736 35.6617 48.2948 35.6795 48.3087 35.7026C48.3225 35.7256 48.3282 35.7527 48.3248 35.7794C48.3214 35.8061 48.3092 35.8309 48.29 35.8497L45.63 38.8497L44.25 36.4198Z" fill="#FFA8A7"/>
<path id="Vector_38" d="M48.2902 35.8497C48.3093 35.8309 48.3216 35.8061 48.325 35.7794C48.3283 35.7527 48.3227 35.7256 48.3088 35.7026C48.295 35.6795 48.2738 35.6617 48.2486 35.6521C48.2235 35.6426 48.1959 35.6417 48.1702 35.6497L47.4102 35.7997C47.5151 35.8658 47.5996 35.9597 47.6543 36.0709C47.709 36.1821 47.7318 36.3063 47.7202 36.4297V36.4897L48.2902 35.8497Z" fill="#040404"/>
<path id="Vector_39" d="M26.3502 49.8997L26.6702 49.7197L27.0602 49.4897L45.6302 38.8596C45.7659 38.3532 45.6973 37.8138 45.4392 37.3575C45.1811 36.9011 44.7541 36.5643 44.2502 36.4197L25.6902 47.0497L24.9502 47.4697C25.4502 47.2197 26.8402 49.6397 26.3502 49.8997Z" fill="#455A64"/>
<path id="Vector_40" d="M27.5801 49.1999L28.2902 48.7898C28.5002 48.6798 28.3802 48.1598 28.1302 47.6198C27.8102 46.9098 27.1302 46.2198 26.8802 46.3698L26.3502 46.6699L26.1702 46.7798C26.4502 46.6298 27.0902 47.3198 27.4202 48.0398C27.6602 48.5498 27.7802 49.0398 27.6002 49.1898L27.5801 49.1999Z" fill="#EBEBEB"/>
<path id="Vector_41" d="M27.7501 49.0998C28.2401 48.8398 26.8401 46.4098 26.3501 46.6698L25.6301 47.0898C26.1201 46.8198 27.5301 49.2498 27.0301 49.5098L27.7501 49.0998Z" fill="#93FF91"/>
<path id="Vector_42" d="M26.3502 49.8998L27.0602 49.4898C27.5402 49.2398 26.2102 46.8898 25.6902 47.0498L24.9802 47.4598C25.4502 47.2198 26.8402 49.6398 26.3502 49.8998Z" fill="#EBEBEB"/>
<path id="Vector_43" opacity="0.15" d="M48.3002 35.7197L48.1702 35.6497L45.3302 37.2097L26.0002 48.2997C26.0002 48.2997 26.0002 48.2497 25.9302 48.2997C26.3502 48.9497 26.6702 49.7797 26.3902 49.9197L26.7102 49.7397L27.1002 49.5097L45.6702 38.8797L48.3302 35.8797C48.3462 35.8541 48.352 35.8234 48.3465 35.7938C48.3409 35.7641 48.3244 35.7377 48.3002 35.7197Z" fill="black"/>
<path id="Vector_44" d="M23.3502 51.6197L26.3502 49.8997C26.5602 49.7897 26.4502 49.2797 26.2002 48.7397C25.8802 48.0297 25.2002 47.3297 24.9502 47.4697L21.9502 49.1997C21.3602 49.5397 21.9502 50.8497 22.5702 51.4297C22.6674 51.5341 22.7931 51.6077 22.9317 51.6415C23.0703 51.6753 23.2158 51.6677 23.3502 51.6197Z" fill="#F28F8F"/>
<path id="Vector_45" opacity="0.1" d="M23.5201 50.6897C23.4437 50.3648 23.2941 50.0616 23.0826 49.8034C22.8712 49.5452 22.6035 49.3387 22.3001 49.1997C22.2255 49.1743 22.1461 49.1664 22.068 49.1768C21.99 49.1872 21.9154 49.2156 21.8501 49.2597C21.4001 49.6797 21.9201 50.8797 22.5501 51.4297C22.6465 51.5352 22.7722 51.6096 22.9111 51.6435C23.0501 51.6773 23.1959 51.669 23.3301 51.6197C23.5501 51.4897 23.6401 51.1497 23.5201 50.6897Z" fill="black"/>
</g>
</g>
</g>
</svg>
