<svg width="120" height="97" viewBox="0 0 120 97" fill="none" xmlns="http://www.w3.org/2000/svg">
<g id="freepik--Books--inject-147">
<g id="freepik--books--inject-147">
<path id="freepik--shadow--inject-147" d="M73.1401 95.4899L118.93 69.0999C120.22 68.3499 120.22 67.0999 118.93 66.3999L51.8401 27.6699C51.1172 27.3004 50.317 27.1077 49.5051 27.1077C48.6932 27.1077 47.893 27.3004 47.1701 27.6699L1.3801 54.0599C0.0900977 54.8099 0.0900977 56.0599 1.3801 56.7599L68.4701 95.4899C69.193 95.8594 69.9932 96.0521 70.8051 96.0521C71.617 96.0521 72.4172 95.8594 73.1401 95.4899Z" fill="#E0E0E0"/>
<g id="freepik--Book--inject-147">
<path id="Vector" d="M111.67 68.2899L109.89 67.2899L111.51 66.8999C111.674 67.0886 111.776 67.3222 111.805 67.5702C111.833 67.8182 111.786 68.069 111.67 68.2899Z" fill="#93FF91"/>
<path id="Vector_2" opacity="0.5" d="M111.67 68.2899L109.89 67.2899L111.51 66.8999C111.674 67.0886 111.776 67.3222 111.805 67.5702C111.833 67.8182 111.786 68.069 111.67 68.2899Z" fill="black"/>
<path id="Vector_3" d="M68.9102 89.4597C69.4698 89.7427 70.0881 89.8902 70.7151 89.8902C71.3422 89.8902 71.9605 89.7427 72.5201 89.4597L108.78 68.5698L48.0702 34.0898L46.6502 33.2598L10.3902 53.5898C10.1748 53.6669 9.9885 53.8087 9.8568 53.9958C9.72511 54.1828 9.65442 54.406 9.65442 54.6348C9.65442 54.8635 9.72511 55.0867 9.8568 55.2738C9.9885 55.4608 10.1748 55.6026 10.3902 55.6797L68.9102 89.4597Z" fill="#93FF91"/>
<path id="Vector_4" d="M79.8402 48.3198L94.0002 56.4598L103.16 51.1798L113.81 57.3298V64.4298C113.81 65.3698 112.81 66.6898 112.38 66.4298C111.691 66.6013 111.021 66.8425 110.38 67.1498C109.319 67.7595 108.332 68.4911 107.44 69.3298L74.9402 51.1398L79.8402 48.3198Z" fill="#93FF91"/>
<path id="Vector_5" opacity="0.15" d="M79.8402 48.3198L94.0002 56.4598L103.16 51.1798L113.81 57.3298V64.4298C113.81 65.3698 112.81 66.6898 112.38 66.4298C111.691 66.6013 111.021 66.8425 110.38 67.1498C109.319 67.7595 108.332 68.4911 107.44 69.3298L74.9402 51.1398L79.8402 48.3198Z" fill="black"/>
<path id="Vector_6" d="M107.94 58.1799V65.8999L108.07 65.8199C108.592 65.4974 109.187 65.3116 109.8 65.2799C110.2 65.2363 110.602 65.3316 110.94 65.5499V56.45L107.94 58.1799Z" fill="#0D8F6A"/>
<path id="Vector_7" d="M106 68.55C106.036 68.0692 106.213 67.6099 106.51 67.23C106.663 67.0284 106.83 66.838 107.01 66.66L107.18 66.5L107.41 66.31L107.59 66.17C107.719 66.0732 107.852 65.983 107.99 65.9V58.22L105.99 59.37V68.55H106Z" fill="#E0E0E0"/>
<path id="Vector_8" opacity="0.4" d="M113.79 64.4299C113.79 65.3699 112.79 66.6899 112.36 66.4299L110.94 65.5099V59.6399L112.37 57.1899L113.14 56.9199L113.79 57.2899V64.4299Z" fill="black"/>
<path id="Vector_9" d="M70.7102 79.6399V88.4399C71.1277 88.4517 71.5411 88.3552 71.9102 88.1599L76.3602 85.5899L105.96 68.5899V59.3699L70.7102 79.6399Z" fill="#EBEBEB"/>
<path id="Vector_10" d="M11.4102 46.5698V53.2198C11.4346 53.6373 11.5558 54.0434 11.764 54.4061C11.9723 54.7688 12.2619 55.0782 12.6102 55.3098L65.0702 85.5898L69.5102 88.1598C69.8798 88.3539 70.2928 88.4502 70.7102 88.4398V80.6298L11.4102 46.5698Z" fill="#F5F5F5"/>
<path id="Vector_11" d="M48.0702 22.6497L108.78 57.6998V58.5098C108.78 58.9698 109.41 59.1297 110.19 58.6797C110.97 58.2297 111.61 57.6798 111.61 56.8898L111.68 56.1097L49.8302 20.4098L49.5802 20.2598C49.518 20.377 49.4838 20.5071 49.4802 20.6398V20.9998C49.4802 21.4598 48.8502 22.1897 48.0702 22.6497Z" fill="#93FF91"/>
<path id="Vector_12" opacity="0.1" d="M48.0702 22.6497L108.78 57.6998V58.5098C108.78 58.9698 109.41 59.1297 110.19 58.6797C110.97 58.2297 111.61 57.6798 111.61 56.8898L111.68 56.1097L49.8302 20.4098L49.5802 20.2598C49.518 20.377 49.4838 20.5071 49.4802 20.6398V20.9998C49.4802 21.4598 48.8502 22.1897 48.0702 22.6497Z" fill="black"/>
<path id="Vector_13" d="M72.5201 78.5998L107.88 58.2197C108.38 57.9497 108.88 57.7397 109.04 57.8397L108.78 57.6998L48.0702 22.6497L47.3602 22.2397C47.0408 22.1432 46.704 22.1182 46.3739 22.1666C46.0438 22.215 45.7284 22.3356 45.4501 22.5197L10.3902 42.7197C10.1748 42.7969 9.9885 42.9387 9.8568 43.1257C9.72511 43.3128 9.65442 43.536 9.65442 43.7648C9.65442 43.9935 9.72511 44.2167 9.8568 44.4038C9.9885 44.5908 10.1748 44.7326 10.3902 44.8097L68.9102 78.5998C69.4698 78.8827 70.0881 79.0301 70.7151 79.0301C71.3422 79.0301 71.9605 78.8827 72.5201 78.5998Z" fill="#93FF91"/>
<path id="Vector_14" d="M49.5802 20.2599L49.8302 20.4099L111.68 56.1099C111.717 56.0485 111.764 55.9943 111.82 55.9499L112.02 55.8299L112.47 55.5699L113.02 55.2499C113.127 55.1798 113.255 55.1485 113.383 55.1612C113.51 55.174 113.629 55.23 113.72 55.3199C113.75 55.3307 113.775 55.352 113.79 55.3799C113.861 55.4569 113.925 55.5407 113.98 55.6299C114.044 55.7417 114.097 55.8588 114.14 55.9799C114.191 56.1133 114.231 56.2503 114.26 56.3899C114.302 56.5441 114.332 56.7012 114.35 56.8599C114.355 56.9531 114.355 57.0466 114.35 57.1399C114.35 57.2199 114.35 57.2899 114.35 57.3699C114.35 57.4499 114.35 57.7299 114.35 57.9199V56.1799C114.287 55.6071 114.091 55.0572 113.776 54.5744C113.462 54.0915 113.038 53.6892 112.54 53.3999L54.1102 19.6099C53.6281 19.3243 53.0862 19.1548 52.5273 19.1149C51.9685 19.075 51.408 19.1657 50.8902 19.3799L50.1502 19.8099C50.0521 19.8784 49.9484 19.9386 49.8402 19.9899C49.7299 20.0537 49.6399 20.1473 49.5802 20.2599Z" fill="#93FF91"/>
<path id="Vector_15" d="M72.5201 89.4599L75.0001 87.9999L107.42 69.3299C107.448 68.8491 107.622 68.3883 107.92 68.0099C108.356 67.4393 108.899 66.9602 109.52 66.5999C110.046 66.2773 110.644 66.0917 111.26 66.0599C111.67 66.057 112.07 66.1868 112.4 66.4299C112.864 65.4992 113.094 64.4695 113.07 63.4299H114.46C114.46 65.3399 113.83 67.2699 113.05 67.7199L112.35 68.1299C111.95 68.3599 111.64 68.3699 111.64 68.1299V67.7599C111.64 67.3399 111.01 67.3599 110.22 67.7599C109.43 68.1599 108.81 68.9199 108.81 69.3299V69.7099C108.81 69.9299 108.27 70.4099 107.61 70.7899L76.3901 88.7899L72.5501 91.0099C71.993 91.2937 71.3753 91.4378 70.7501 91.4299V89.8199C71.3609 89.8493 71.9693 89.7255 72.5201 89.4599Z" fill="#93FF91"/>
<path id="Vector_16" opacity="0.3" d="M72.5201 89.4599L75.0001 87.9999L107.42 69.3299C107.448 68.8491 107.622 68.3883 107.92 68.0099C108.356 67.4393 108.899 66.9602 109.52 66.5999C110.046 66.2773 110.644 66.0917 111.26 66.0599C111.67 66.057 112.07 66.1868 112.4 66.4299C112.864 65.4992 113.094 64.4695 113.07 63.4299H114.46C114.46 65.3399 113.83 67.2699 113.05 67.7199L112.35 68.1299C111.95 68.3599 111.64 68.3699 111.64 68.1299V67.7599C111.64 67.3399 111.01 67.3599 110.22 67.7599C109.43 68.1599 108.81 68.9199 108.81 69.3299V69.7099C108.81 69.9299 108.27 70.4099 107.61 70.7899L76.3901 88.7899L72.5501 91.0099C71.993 91.2937 71.3753 91.4378 70.7501 91.4299V89.8199C71.3609 89.8493 71.9693 89.7255 72.5201 89.4599Z" fill="black"/>
<path id="Vector_17" d="M9.65015 43.7397V45.3798C9.6745 45.5941 9.75349 45.7987 9.87956 45.9738C10.0056 46.1489 10.1746 46.2887 10.3701 46.3798L65.0701 77.9998L68.9001 80.2198C69.456 80.507 70.0746 80.6513 70.7001 80.6398V78.9998C70.07 79.0129 69.447 78.8649 68.8901 78.5698L66.4501 77.1598L10.3901 44.8098C10.1791 44.7184 9.99791 44.5697 9.8671 44.3806C9.7363 44.1915 9.66114 43.9694 9.65015 43.7397Z" fill="#93FF91"/>
<path id="Vector_18" opacity="0.2" d="M9.65015 43.7397V45.3798C9.6745 45.5941 9.75349 45.7987 9.87956 45.9738C10.0056 46.1489 10.1746 46.2887 10.3701 46.3798L65.0701 77.9998L68.9001 80.2198C69.456 80.507 70.0746 80.6513 70.7001 80.6398V78.9998C70.07 79.0129 69.447 78.8649 68.8901 78.5698L66.4501 77.1598L10.3901 44.8098C10.1791 44.7184 9.99791 44.5697 9.8671 44.3806C9.7363 44.1915 9.66114 43.9694 9.65015 43.7397Z" fill="black"/>
<path id="Vector_19" d="M9.65015 54.6099V56.2399C9.67259 56.4548 9.75084 56.6602 9.87714 56.8356C10.0034 57.011 10.1734 57.1504 10.3701 57.2399L65.0501 88.7999L68.8801 91.0199C69.4377 91.3025 70.0551 91.4465 70.6801 91.4399V89.8299C70.05 89.843 69.427 89.695 68.8701 89.3999L66.4301 87.9899L10.3901 55.6699C10.1792 55.5813 9.9977 55.4346 9.86672 55.247C9.73574 55.0594 9.66065 54.8384 9.65015 54.6099Z" fill="#93FF91"/>
<path id="Vector_20" opacity="0.2" d="M9.65015 54.6099V56.2399C9.67259 56.4548 9.75084 56.6602 9.87714 56.8356C10.0034 57.011 10.1734 57.1504 10.3701 57.2399L65.0501 88.7999L68.8801 91.0199C69.4377 91.3025 70.0551 91.4465 70.6801 91.4399V89.8299C70.05 89.843 69.427 89.695 68.8701 89.3999L66.4301 87.9899L10.3901 55.6699C10.1792 55.5813 9.9977 55.4346 9.86672 55.247C9.73574 55.0594 9.66065 54.8384 9.65015 54.6099Z" fill="black"/>
</g>
<g id="freepik--book--inject-147">
<path id="Vector_21" d="M111.69 50.4898L68.5601 74.9698L5.50012 38.7898L48.6201 14.2898L111.69 50.4898Z" fill="#93FF91"/>
<path id="Vector_22" opacity="0.2" d="M111.69 50.4898L68.5601 74.9698L5.50012 38.7898L48.6201 14.2898L111.69 50.4898Z" fill="white"/>
<path id="Vector_23" d="M68.1302 73.3199L109.9 49.4599C108.945 46.337 109.015 42.9901 110.1 39.9099L68.5602 63.5499C68.5602 63.5499 67.8602 65.8499 68.1302 73.3199Z" fill="#F5F5F5"/>
<path id="Vector_24" d="M70.4401 60.5598C69.4126 61.2248 68.5565 62.123 67.9414 63.1812C67.3263 64.2393 66.9696 65.4277 66.9001 66.6497V73.7697C66.9001 76.0097 68.4901 76.9197 70.4401 75.7697L111.68 52.2198V50.4498L70.9301 73.6298C69.7601 74.2998 68.8101 73.7598 68.8101 72.4098V65.8198C68.8575 65.0794 69.0809 64.3611 69.4618 63.7245C69.8427 63.0879 70.3701 62.5515 71.0001 62.1598L111.68 38.9998V36.9998L70.4401 60.5598Z" fill="#93FF91"/>
<path id="Vector_25" opacity="0.4" d="M70.4401 60.5598C69.4126 61.2248 68.5565 62.123 67.9414 63.1812C67.3263 64.2393 66.9696 65.4277 66.9001 66.6497V73.7697C66.9001 76.0097 68.4901 76.9197 70.4401 75.7697L111.68 52.2198V50.4498L70.9301 73.6298C69.7601 74.2998 68.8101 73.7598 68.8101 72.4098V65.8198C68.8575 65.0794 69.0809 64.3611 69.4618 63.7245C69.8427 63.0879 70.3701 62.5515 71.0001 62.1598L111.68 38.9998V36.9998L70.4401 60.5598Z" fill="white"/>
<path id="Vector_26" d="M111.68 36.9998L48.6201 0.819824L7.38014 24.3798C6.35393 25.0454 5.49935 25.9439 4.88595 27.0021C4.27255 28.0604 3.91765 29.2485 3.85014 30.4698V37.5798C3.8 38.0144 3.86617 38.4544 4.04187 38.855C4.21756 39.2556 4.4965 39.6024 4.85014 39.8598L67.9101 76.0498C67.5588 75.7903 67.2816 75.4432 67.1061 75.0432C66.9307 74.6431 66.8631 74.2041 66.9101 73.7698V66.6498C66.9772 65.4272 67.3329 64.2379 67.9482 63.1794C68.5636 62.1208 69.421 61.2231 70.4501 60.5598L111.68 36.9998Z" fill="#93FF91"/>
<path id="Vector_27" opacity="0.85" d="M111.68 36.9998L48.6201 0.819824L7.38014 24.3798C6.35393 25.0454 5.49935 25.9439 4.88595 27.0021C4.27255 28.0604 3.91765 29.2485 3.85014 30.4698V37.5798C3.8 38.0144 3.86617 38.4544 4.04187 38.855C4.21756 39.2556 4.4965 39.6024 4.85014 39.8598L67.9101 76.0498C67.5588 75.7903 67.2816 75.4432 67.1061 75.0432C66.9307 74.6431 66.8631 74.2041 66.9101 73.7698V66.6498C66.9772 65.4272 67.3329 64.2379 67.9482 63.1794C68.5636 62.1208 69.421 61.2231 70.4501 60.5598L111.68 36.9998Z" fill="white"/>
<path id="Vector_28" d="M67.9402 63.1898C67.3166 64.2387 66.9724 65.4299 66.9402 66.6497V73.7697C66.8931 74.204 66.9607 74.6431 67.1362 75.0431C67.3116 75.4431 67.5888 75.7902 67.9402 76.0497L4.88017 39.8597C4.52653 39.6023 4.2476 39.2555 4.0719 38.8549C3.8962 38.4544 3.83003 38.0143 3.88017 37.5797V30.4698C3.91155 29.2466 4.25583 28.052 4.88017 26.9998L67.9402 63.1898Z" fill="#93FF91"/>
<path id="Vector_29" opacity="0.6" d="M67.9402 63.1898C67.3166 64.2387 66.9724 65.4299 66.9402 66.6497V73.7697C66.8931 74.204 66.9607 74.6431 67.1362 75.0431C67.3116 75.4431 67.5888 75.7902 67.9402 76.0497L4.88017 39.8597C4.52653 39.6023 4.2476 39.2555 4.0719 38.8549C3.8962 38.4544 3.83003 38.0143 3.88017 37.5797V30.4698C3.91155 29.2466 4.25583 28.052 4.88017 26.9998L67.9402 63.1898Z" fill="white"/>
<path id="Vector_30" d="M13.2001 31.7197C12.0501 36.7197 12.0701 40.9997 13.2001 44.6597L16.1201 46.3497C14.9901 42.6997 14.9801 38.3497 16.1201 33.4097L13.2001 31.7197Z" fill="white"/>
<path id="Vector_31" d="M55.0801 55.8999C53.9301 60.8999 53.9501 65.1899 55.0801 68.8399L58.0001 70.5299C56.8701 66.8799 56.8501 62.5299 58.0001 57.5899L55.0801 55.8999Z" fill="white"/>
</g>
</g>
<g id="freepik--Apple--inject-147">
<path id="Vector_32" opacity="0.3" d="M66.8501 43.3698C60.9101 46.7898 51.2901 46.7898 45.3601 43.3698C39.4301 39.9498 39.4201 34.3698 45.3601 30.9598C51.3001 27.5498 60.9101 27.5298 66.8501 30.9598C72.7901 34.3898 72.7801 39.9398 66.8501 43.3698Z" fill="#93FF91"/>
<path id="Vector_33" d="M59.5501 12.5899C62.2301 12.2899 66.9101 11.8599 70.7901 17.2899C75.2201 23.4699 73.3701 32.4199 68.9401 36.8099C63.3801 42.3299 53.5301 44.2799 46.7901 39.9599C39.3401 35.1899 36.9701 24.1299 40.5401 18.5099C44.1101 12.8899 51.1201 13.1199 53.0101 13.5699C55.8601 14.2399 57.4601 12.8299 59.5501 12.5899Z" fill="#93FF91"/>
<path id="Vector_34" opacity="0.1" d="M50.2101 37.9999C57.7301 40.5899 66.9101 37.8199 71.8601 32.4999C71.1613 34.1135 70.1714 35.5846 68.9401 36.8399C63.3801 42.3599 53.5301 44.3099 46.7901 39.9899C41.1401 36.3699 38.4201 29.1399 38.9901 23.4099C39.0001 24.9999 41.9401 35.1299 50.2101 37.9999Z" fill="black"/>
<g id="Group" opacity="0.1">
<path id="Vector_35" d="M62.71 14.4799C64.4 14.0499 67.14 15.1399 68.84 17.2499C70.95 19.8699 71.84 23.9299 71.84 26.9899C71.84 33.1599 66.58 37.2899 65.94 36.8799C65.3 36.4699 68.83 31.8199 65.5 26.2499C62.17 20.6799 59.94 15.1999 62.71 14.4799Z" fill="white"/>
</g>
<g id="Group_2" opacity="0.1">
<path id="Vector_36" d="M64.2001 15.2298C66.0401 15.5198 68.5301 17.9598 69.4001 19.8498C70.2701 21.7398 70.2301 23.1198 70.0001 23.3898C69.5901 23.8898 65.4601 21.0298 64.0001 19.6798C62.0001 17.7498 61.2201 14.7598 64.2001 15.2298Z" fill="white"/>
</g>
<path id="Vector_37" opacity="0.2" d="M57.67 18.2C58.47 17.29 59.28 16.77 59.94 17.81C60.6 18.85 58.41 21.02 55.53 20.69C52.65 20.36 51.39 18.69 51.29 17.81C52.1845 18.791 53.4251 19.3861 54.75 19.47C55.8407 19.396 56.8723 18.9474 57.67 18.2Z" fill="black"/>
<path id="Vector_38" d="M55.4101 19.9999C55.0259 17.4409 55.0259 14.8389 55.4101 12.2799C56.0501 8.54988 57.8301 5.70988 58.4101 5.33988C59.3067 4.80667 60.3045 4.4661 61.3401 4.33988C62.7501 4.11988 64.5901 4.77988 64.2201 5.39988C63.8501 6.01988 61.8901 6.77989 59.8201 9.49989C57.7501 12.2199 56.1601 17.0999 56.6101 19.7699C56.4545 19.9214 56.2579 20.024 56.0446 20.0649C55.8313 20.1057 55.6107 20.0831 55.4101 19.9999Z" fill="#0D8F6A"/>
<path id="Vector_39" d="M58.4301 5.26989L58.5601 5.1899C59.4044 4.7677 60.3138 4.4905 61.2501 4.36989C62.2133 4.22638 63.1953 4.45135 64.0001 4.9999C64.1301 5.1799 63.8701 5.50989 62.6401 5.89989C61.4282 6.29712 60.1385 6.3966 58.8801 6.1899C58.3301 5.9999 58.0001 5.57989 58.4301 5.26989Z" fill="#455A64"/>
<path id="Vector_40" opacity="0.1" d="M56.48 15.2398C57.05 11.8698 59.97 8.65984 62.07 7.08984C61.2074 7.8096 60.4291 8.6248 59.75 9.51984C57.68 12.2398 56.09 17.1199 56.54 19.7899C56.3878 19.923 56.202 20.012 56.0029 20.0472C55.8037 20.0825 55.5987 20.0626 55.41 19.9898C55.41 19.9898 55.24 18.9898 55.15 17.6098C55.44 18.8898 56 18.3398 56.48 15.2398Z" fill="black"/>
<path id="Vector_41" d="M55.1301 14.34C54.0164 14.7076 52.8257 14.7774 51.6767 14.5423C50.5276 14.3072 49.46 13.7755 48.5801 13C46.2101 10.78 46.9101 7.24997 46.9101 7.24997C47.8509 6.91338 48.8588 6.80762 49.849 6.94162C50.8391 7.07561 51.7826 7.44542 52.6001 8.01996C53.4982 8.79291 54.197 9.77076 54.6374 10.8708C55.0777 11.9709 55.2468 13.1608 55.1301 14.34Z" fill="#93FF91"/>
<path id="Vector_42" opacity="0.3" d="M55.1301 14.34C54.0164 14.7076 52.8257 14.7774 51.6767 14.5423C50.5276 14.3072 49.46 13.7755 48.5801 13C46.2101 10.78 46.9101 7.24997 46.9101 7.24997C47.8509 6.91338 48.8588 6.80762 49.849 6.94162C50.8391 7.07561 51.7826 7.44542 52.6001 8.01996C53.4982 8.79291 54.197 9.77076 54.6374 10.8708C55.0777 11.9709 55.2468 13.1608 55.1301 14.34Z" fill="black"/>
<path id="Vector_43" d="M46.91 7.22995C47.8508 6.89336 48.8587 6.7876 49.8489 6.9216C50.839 7.05559 51.7825 7.4254 52.6 7.99994C53.5011 8.7749 54.2016 9.75601 54.6421 10.8598C55.0826 11.9637 55.25 13.1575 55.13 14.3399C52.72 9.69993 46.91 7.22995 46.91 7.22995Z" fill="#93FF91"/>
</g>
</g>
</svg>
