<svg width="120" height="179" viewBox="0 0 120 179" fill="none" xmlns="http://www.w3.org/2000/svg">
<g id="freepik--Character--inject-147">
<g id="freepik--character--inject-147">
<g id="freepik--Legs--inject-147">
<path id="Vector" d="M30.6599 131.9C30.6599 131.9 30.6599 128.95 32.7399 127.96C32.9213 127.846 33.1309 127.786 33.3449 127.786C33.5589 127.786 33.7686 127.846 33.9499 127.96C33.9499 127.96 31.9499 128.45 31.6599 131.96C31.6599 131.96 31.5799 132.2 31.1399 132.16C30.9999 132.17 30.6599 132.15 30.6599 131.9Z" fill="#FAFAFA"/>
<path id="Vector_2" d="M28.8501 129.34C25.6201 129.34 23.8501 128.96 19.9801 129.03C17.0801 129.08 15.9801 132.63 19.5301 135.53C21.0545 136.682 22.7389 137.605 24.5301 138.27C29.1001 139.67 32.4001 138.88 34.8101 139.16C37.9401 139.53 38.8101 140.41 41.3301 140.6C44.6901 140.85 45.9101 140.32 46.8001 139.27C47.8601 136.84 47.1901 135.95 47.5501 133.1C47.7501 131.52 47.6401 130.86 47.4701 130.88C46.4401 130.78 30.4201 129.32 28.8501 129.34Z" fill="#455A64"/>
<path id="Vector_3" d="M47.41 131.13C47.91 129.57 49.41 123.13 49.41 123.13C49.41 123.13 47.31 124.63 43.41 124.13C41.41 123.87 40.0701 118.67 40.0701 118.67L38.93 127.32C38.16 129.32 34.34 129.4 30.62 129.44C29.99 129.44 29.34 129.44 28.69 129.39C26.69 129.53 24.85 130.97 27.12 132.39C29.39 133.81 32.88 134.04 36.12 134.22C39.9 134.38 46.25 134.79 47.41 131.13Z" fill="#F7A9A0"/>
<path id="Vector_4" d="M43.3101 83.48C42.1601 92.15 39.3101 123.26 39.3101 123.26C39.3101 123.26 44.3101 127.21 49.0701 124.86C52.9201 110.49 60.4901 94.64 59.4101 84.5L43.3101 83.48Z" fill="#040404"/>
<path id="Vector_5" d="M11.63 139.45C8.4 139.45 6.63 139.07 2.76 139.14C-0.149999 139.2 -1.24002 142.74 2.29998 145.65C3.83095 146.792 5.51387 147.714 7.29998 148.39C11.87 149.79 15.17 148.99 17.58 149.27C20.71 149.64 21.53 150.53 24.1 150.72C27.46 150.97 28.68 150.44 29.57 149.38C30.63 146.95 29.96 146.07 30.32 143.21C30.52 141.64 30.41 140.97 30.24 140.99C29.22 140.89 13.19 139.44 11.63 139.45Z" fill="#455A64"/>
<path id="Vector_6" d="M30.1899 141.25C30.6899 139.68 32.1899 133.25 32.1899 133.25C32.1899 133.25 30.0899 134.74 26.1899 134.25C24.1899 133.98 22.8499 128.79 22.8499 128.79L21.7099 137.43C20.9299 139.43 17.1199 139.51 13.3999 139.55C12.7699 139.55 12.1199 139.55 11.4699 139.55C9.46992 139.69 7.63992 141.13 9.90992 142.55C12.1799 143.97 15.6599 144.2 18.9099 144.37C22.6799 144.49 28.9999 144.9 30.1899 141.25Z" fill="#F7A9A0"/>
<path id="Vector_7" d="M26.9999 93.2599C25.5699 99.8399 23.3399 124.46 21.8599 134.03C24.8737 135.655 28.3347 136.255 31.7199 135.74C33.9799 128.48 44.7199 102.74 42.2499 94.6199C40.6899 89.5099 35.1599 91.6199 35.1599 91.6199L26.9999 93.2599Z" fill="#0D8F6A"/>
</g>
<path id="Vector_8" d="M109.8 160.83L103.8 110.77L98.8999 110.52L107.33 160.83C107.352 160.922 107.393 161.008 107.45 161.084C107.507 161.159 107.578 161.223 107.66 161.27C107.925 161.42 108.221 161.506 108.525 161.52C108.829 161.534 109.133 161.476 109.41 161.35C109.518 161.311 109.611 161.24 109.679 161.148C109.746 161.055 109.785 160.945 109.79 160.83H109.8Z" fill="#040404"/>
<path id="Vector_9" d="M45.8801 107.52H41.0001L33.8501 154.8C33.8507 154.915 33.8852 155.028 33.9492 155.124C34.0131 155.22 34.1039 155.295 34.2101 155.34C34.4812 155.478 34.781 155.55 35.0851 155.55C35.3892 155.55 35.689 155.478 35.9601 155.34C36.0443 155.297 36.1182 155.236 36.1768 155.162C36.2355 155.088 36.2775 155.002 36.3001 154.91L45.8801 107.52Z" fill="#0D8F6A"/>
<path id="Vector_10" d="M41 107.52L39 120.71C40.1622 121.625 41.4274 122.4 42.77 123.02L45.91 107.52H41Z" fill="#040404"/>
<path id="Vector_11" d="M77 177.62L72.38 126.71L67.48 126.46L74.48 177.61C74.5013 177.702 74.5417 177.789 74.5985 177.865C74.6553 177.941 74.7274 178.004 74.81 178.05C75.0757 178.197 75.3714 178.281 75.6746 178.297C75.9778 178.312 76.2806 178.259 76.56 178.14C76.6662 178.098 76.7584 178.027 76.8257 177.935C76.893 177.843 76.9326 177.734 76.94 177.62H77Z" fill="#0D8F6A"/>
<path id="Vector_12" d="M73.06 134.15L72.38 126.71L67.48 126.46L68.59 134.51C70.0863 134.773 71.6249 134.649 73.06 134.15Z" fill="#040404"/>
<path id="Vector_13" d="M72.6701 91.9402H67.7601L60.6201 139.22C60.6232 139.335 60.6587 139.446 60.7224 139.542C60.786 139.638 60.8754 139.713 60.9801 139.76C61.2512 139.898 61.551 139.97 61.8551 139.97C62.1593 139.97 62.4591 139.898 62.7301 139.76C62.8144 139.718 62.8889 139.659 62.9492 139.587C63.0094 139.515 63.054 139.431 63.0801 139.34L72.6701 91.9402Z" fill="#040404"/>
<path id="Vector_14" d="M37.9399 106.55C37.2599 102.67 40.4099 99.6502 46.3399 95.6502C51.8376 92.0275 57.5854 88.7994 63.5399 85.9902C68.5399 83.7102 73.5399 83.9202 79.9399 87.1802C88.7699 91.7202 112.08 106.54 112.08 106.54C112.08 106.54 72.3499 129 64.6999 128C57.0499 127 41.2199 115.86 39.6999 111.49C38.1799 107.12 37.9399 106.55 37.9399 106.55Z" fill="#93FF91"/>
<g id="Group" opacity="0.6">
<path id="Vector_15" d="M37.9399 106.55C37.2599 102.67 40.4099 99.6502 46.3399 95.6502C51.8376 92.0275 57.5854 88.7994 63.5399 85.9902C68.5399 83.7102 73.5399 83.9202 79.9399 87.1802C88.7699 91.7202 112.08 106.54 112.08 106.54C112.08 106.54 72.3499 129 64.6999 128C57.0499 127 41.2199 115.86 39.6999 111.49C38.1799 107.12 37.9399 106.55 37.9399 106.55Z" fill="white"/>
</g>
<path id="Vector_16" d="M68.5399 123.25C62.8399 128.41 60.1399 125.25 50.7099 119.14C40.0399 112.21 37.9399 106.55 37.9399 106.55C37.9399 106.55 37.9399 110.79 38.7399 112.78C39.5399 114.77 41.2599 117.03 48.9599 122.34C56.6599 127.65 59 129 64.14 130L68.2199 129.44" fill="#93FF91"/>
<path id="Vector_17" opacity="0.25" d="M50.7099 119.14C40.0399 112.21 37.9399 106.55 37.9399 106.55C37.9399 106.55 37.9399 110.79 38.7399 112.78C39.5399 114.77 41.2599 117.03 48.9599 122.34C56.6599 127.65 59 129 64.14 130L68.2199 129.44L68.5399 123.26C62.8399 128.41 60.1399 125.26 50.7099 119.14Z" fill="white"/>
<g id="freepik--top--inject-147">
<path id="Vector_18" d="M95.5099 86.07C95.5099 86.07 79.2199 81.38 68.1099 78.9C58.7399 76.81 54.2499 76.14 51.5199 77C48.7899 77.86 47.2399 79.86 45.3999 83.43C43.8499 86.43 42.3999 89.7001 42.3999 89.7001C42.3999 89.7001 61.6999 99.2 72.2299 100.44C82.7599 101.68 95.5099 86.07 95.5099 86.07Z" fill="#040404"/>
<path id="Vector_19" d="M96.0599 86.0702C99.4999 95.9902 98.9499 105.47 92.9399 111.07C89.4899 114.28 73.3699 123.33 62.8299 119.84C52.4599 116.41 33.0899 98.2702 30.9299 96.6602C28.7699 95.0502 26.8099 93.9602 27.0199 93.2802C29.9199 83.6602 34.1499 82.9102 42.0199 84.6402C51.6299 86.7502 70.5899 97.5402 70.5899 97.5402L96.0599 86.0702Z" fill="#0D8F6A"/>
<path id="Vector_20" d="M71.6199 46.2001L41.8299 42.6401C39.0199 41.0001 37.0699 39.9701 33.8299 39.6401C32.6002 39.7841 31.4217 40.2157 30.3899 40.9001C27.3299 43.1901 23.0699 51.7601 28.3899 52.6701C31.5699 53.2101 35.3899 51.0501 37.9699 50.9301C40.287 50.9295 42.5972 51.1809 44.8599 51.6801C51.0099 53.6801 62.2199 57.8401 70.5399 59.6301C73.6899 60.3101 77.2199 58.3101 78.9499 54.8501C81.7999 49.2101 71.6199 46.2001 71.6199 46.2001Z" fill="#F7A9A0"/>
<path id="Vector_21" d="M33.2999 45.12L29.1099 52.75C29.1099 52.75 29.6799 52.75 30.2499 52.75C30.2499 52.75 31.8899 49.57 32.6999 48.4C33.5099 47.23 34.2999 45.94 34.2999 45.94C34.2999 45.94 36.7899 44.64 37.5499 43.36C38.3099 42.08 33.2999 45.12 33.2999 45.12Z" fill="#F0997A"/>
<path id="Vector_22" d="M32.6499 39.1802C31.0291 39.4724 29.4436 39.9349 27.9199 40.5602C27.6227 40.702 27.3651 40.9149 27.1699 41.1802C27.0121 41.4941 26.9073 41.832 26.8599 42.1802C26.4799 43.8902 25.2299 45.2402 24.8599 46.9402C24.5199 48.4402 24.8599 52.2902 26.1299 52.7802C26.9099 53.0902 27.57 51.3002 27.64 50.1202C28.13 50.8302 29.1399 50.1202 29.3199 48.1202C29.4599 46.5302 29.7899 44.3002 29.7899 44.3002L32.6499 39.1802Z" fill="#F7A9A0"/>
<path id="Vector_23" d="M28.8799 43.3C28.7878 43.4597 28.7393 43.6408 28.7393 43.8251C28.7393 44.0094 28.7878 44.1904 28.8799 44.3501C29.06 44.704 29.3376 44.9989 29.6799 45.2001L29.8099 44.2901L28.8799 43.3Z" fill="#F0997A"/>
<path id="Vector_24" d="M41.8299 42.6101C39.5399 41.3101 37.7099 39.2701 36.1499 39.5601C33.8299 39.9901 33.1499 41.4001 30.5599 42.1401C26.9499 43.1401 29.6799 45.5801 32.9199 45.1401C34.6165 45.0205 36.2341 44.3776 37.5499 43.3001C37.5499 43.3001 41.7799 46.3401 41.8299 42.6101Z" fill="#F7A9A0"/>
<path id="Vector_25" d="M71.25 34.77C72.6293 33.9498 74.1603 33.4173 75.7508 33.2046C77.3414 32.9918 78.9585 33.1032 80.5048 33.5321C82.0512 33.961 83.4947 34.6984 84.7484 35.7C86.0022 36.7016 87.0402 37.9466 87.8 39.36C90.95 45.55 90.47 55.22 90.47 55.22C86.74 51.53 71.25 34.77 71.25 34.77Z" fill="#0D8F6A"/>
<path id="Vector_26" d="M71.8099 36.6502L71.2499 34.7702C79.2499 30.9502 87.4799 36.7702 89.5999 47.2202C90.9499 53.8202 90.2799 61.4102 91.0699 70.7302C91.6399 77.4502 94.6999 78.4202 97.7099 90.4302C97.7099 90.4302 93.3499 97.2902 83.2899 99.7502C73.2299 102.21 59.4199 100.04 56.9799 92.2702C56.7254 88.3013 56.1941 84.355 55.3899 80.4602C54.2999 75.5202 52.9599 68.4602 50.5399 62.8502C48.2499 57.5102 45.7799 46.3502 52.0099 42.6602C53.8399 41.5702 55.7099 40.8502 58.1999 39.6602C63.8799 41.5302 72.5399 38.9002 71.8099 36.6502Z" fill="#93FF91"/>
<path id="Vector_27" d="M42.82 93C39.73 91.83 37.82 88.34 37.46 86.08C37.1 83.82 38.09 80.13 39.29 78.08C40.49 76.03 42.82 93 42.82 93Z" fill="#F0997A"/>
<path id="Vector_28" d="M39.2299 78.4201C40.1199 72.9801 41.5599 64.5601 43.3599 55.6901C45.1199 47.0701 46.5699 45.4401 51.0699 43.5701C61.9799 50.0701 56.6099 64.8201 56.6099 64.8201C56.6099 64.8201 52.4299 81.9201 50.1899 87.3501C48.7299 90.8701 45.8499 94.83 42.0199 92.61C38.1899 90.39 38.3499 83.8601 39.2299 78.4201Z" fill="#F7A9A0"/>
<path id="Vector_29" d="M51.4499 43C49.8285 43.7007 48.3639 44.7192 47.1428 45.9953C45.9216 47.2714 44.9685 48.7794 44.3398 50.43C43.3441 53.2478 42.5061 56.1189 41.8298 59.03C44.9664 59.0529 48.0633 59.7342 50.9199 61.03C53.2622 62.2741 55.2169 64.1389 56.5699 66.42C57.453 63.5085 58.0262 60.5119 58.2798 57.48C58.4198 53.74 58.3099 46.43 51.4499 43Z" fill="#0D8F6A"/>
<path id="Vector_30" d="M47.5699 19.9402C47.5699 19.9402 44.6199 24.9402 45.0699 25.3902C45.855 25.8338 46.711 26.1383 47.5999 26.2902L47.5699 19.9402Z" fill="#F0997A"/>
<path id="Vector_31" d="M74.9 6.64011C74.8739 6.27346 74.793 5.91278 74.66 5.57011C74.3223 4.89648 73.8649 4.28992 73.31 3.7801C72.2116 2.75831 70.9001 1.99323 69.47 1.54011C67.2629 0.819776 64.9313 0.561073 62.62 0.780097C60.4 0.970097 58.35 1.5201 56.1 1.2501C54.4195 0.941284 52.7179 0.760754 51.01 0.71009C50.1564 0.688777 49.308 0.849916 48.5216 1.18275C47.7352 1.51558 47.029 2.01245 46.45 2.64011C45.6966 3.64363 45.3405 4.89007 45.45 6.14011C45.5514 7.38717 45.9198 8.59783 46.53 9.6901C45.7911 10.3927 45.2957 11.3127 45.1159 12.3163C44.936 13.3199 45.0811 14.3546 45.53 15.2701C46.65 17.8201 49.26 19.2701 51.39 20.8601C53.06 22.1201 54.68 23.4601 56.22 24.8601C56.9861 25.5214 57.7171 26.2224 58.41 26.9601L58.53 27.1101C57.9782 27.2457 57.4018 27.2457 56.85 27.1101C56.85 27.1101 57.44 32.1601 61.73 33.8201C61.73 33.8201 67.2 34.9301 71.04 32.4901C71.83 30.6601 74.26 28.4201 76.14 24.8501C79.83 17.7301 78.66 10.5001 74.9 6.64011Z" fill="#040404"/>
<path id="Vector_32" d="M60.6698 25.8201C60.4598 26.2566 60.1536 26.6398 59.7743 26.9412C59.395 27.2425 58.9525 27.4541 58.4798 27.5601C58.1837 27.6442 57.8701 27.6448 57.5736 27.5619C57.2771 27.4789 57.0093 27.3157 56.7998 27.0901C57.4403 29.4751 58.7606 31.6223 60.5998 33.2701C59.8558 33.7695 59.0443 34.1601 58.1898 34.4301C55.8398 35.2901 51.1898 35.2501 50.2798 34.4301C48.8898 33.2501 45.6298 29.8201 47.5998 20.4301C46.7998 16.5101 47.5098 12.8201 49.4498 11.8301C49.5872 12.5032 49.8919 13.1309 50.3358 13.6552C50.7797 14.1796 51.3486 14.5836 51.9898 14.8301C51.6748 15.3218 51.4713 15.8765 51.3936 16.4552C51.3159 17.034 51.3658 17.6227 51.5398 18.1801C52.0879 19.4668 52.9636 20.5874 54.0798 21.4301C54.1384 21.4897 54.2104 21.5342 54.2898 21.5601C54.4398 21.5601 55.0498 21.5601 55.1298 21.3901C55.9098 20.1001 56.9798 18.5801 59.3098 19.2001C61.9998 20.0001 62.1798 23.1201 60.6698 25.8201Z" fill="#F7A9A0"/>
<path id="Vector_33" d="M50.54 34.6201C51.65 35.1501 54.72 35.2201 56.98 34.7601L56.53 33.0601C55.6934 33.5733 54.7875 33.9639 53.84 34.2201C52.7663 34.5178 51.6539 34.6527 50.54 34.6201Z" fill="#F0997A"/>
<path id="Vector_34" d="M54.09 24.84C53.8086 24.7596 53.5459 24.6241 53.3172 24.4414C53.0886 24.2587 52.8985 24.0324 52.758 23.7756C52.6175 23.5189 52.5295 23.2367 52.4989 22.9457C52.4683 22.6546 52.4959 22.3603 52.58 22.08C52.7599 21.5126 53.1546 21.0382 53.6796 20.7579C54.2047 20.4776 54.8185 20.4138 55.39 20.58L54.09 24.84Z" fill="#040404"/>
<path id="Vector_35" d="M56.7999 27.0901C56.7999 27.0901 58.1599 33.5401 56.3799 36.3001C54.5999 39.0601 52.9399 42.1401 52.9399 42.1401L58.2 39.6601C58.2 39.6601 59.45 48.5001 64.14 52.7501C68.83 57.0001 79.1399 57.5201 84.5899 51.5301C90.8499 44.6301 80.8599 37.0101 79.4799 32.9701C78.1 28.9301 83.1199 11.1301 74.8999 6.64014L73.0699 20.4901L65.9999 29.1701C65.9999 29.1701 58.1699 29.8801 56.7999 27.0901Z" fill="#040404"/>
</g>
<path id="Vector_36" d="M68.22 129.43C71.47 129.27 74.01 126.88 81.74 123.66C95.99 117.72 106.69 112.97 110.74 105.5C114.79 98.0302 117.74 64.5002 116.68 55.2102C116.585 54.1514 116.353 53.1094 115.99 52.1102L116.99 51.9602L114.39 49.7502C111.73 47.5702 107.39 49.5102 104.12 51.2902C94.79 56.3702 87.49 61.2902 81.72 79.1302C77.37 92.5402 74.51 116.7 68.52 123.24" fill="#93FF91"/>
<path id="Vector_37" opacity="0.25" d="M116 52.1102L117 51.9602L114.4 49.7502C111.74 47.5702 107.4 49.5102 104.13 51.2902C94.8 56.3702 87.5 61.2902 81.73 79.1302C77.38 92.5402 74.52 116.7 68.53 123.24L68.21 129.42C71.46 129.26 74 126.87 81.73 123.65C95.98 117.71 106.68 112.96 110.73 105.49C114.78 98.0202 117.73 64.4902 116.67 55.2002C116.58 54.1457 116.355 53.1071 116 52.1102Z" fill="white"/>
<path id="Vector_38" d="M106.62 52.5002C97.2801 57.5802 88.5101 63.1302 83.5601 81.4102C78.6701 99.4902 75.5101 126.94 64.1401 129.99C64.1401 129.99 69.2801 132.04 85.0401 125.37C90.0401 123.25 96.1401 119.37 100.14 117.14C107.97 112.75 112.72 109.14 113.47 107.8C117.61 100.36 120.47 66.8002 119.41 57.5002C118.35 48.2002 111.29 50.0002 106.62 52.5002Z" fill="#93FF91"/>
<g id="Group_2" opacity="0.4">
<path id="Vector_39" d="M106.62 52.5002C97.2801 57.5802 88.5101 63.1302 83.5601 81.4102C78.6701 99.4902 75.5101 126.94 64.1401 129.99C64.1401 129.99 69.2801 132.04 85.0401 125.37C90.0401 123.25 96.1401 119.37 100.14 117.14C107.97 112.75 112.72 109.14 113.47 107.8C117.61 100.36 120.47 66.8002 119.41 57.5002C118.35 48.2002 111.29 50.0002 106.62 52.5002Z" fill="white"/>
</g>
</g>
</g>
</svg>
