<svg width="165" height="216" viewBox="0 0 165 216" fill="none" xmlns="http://www.w3.org/2000/svg">
<g id="freepik--board--inject-147">
<path id="Vector" d="M164.77 125.15L8.37 215.45V213.98L164.77 123.68V125.15Z" fill="#0D8F6A"/>
<path id="Vector_2" d="M160.04 120.95L164.77 123.68L8.37001 213.98L3.64001 211.25L160.04 120.95Z" fill="#455A64"/>
<path id="Vector_3" d="M3.64001 211.25L8.37001 213.98V215.45L3.64001 212.72V211.25Z" fill="#040404"/>
<path id="Vector_4" d="M160.04 120.95L3.64001 211.25V92.4L160.04 2.09998V120.95Z" fill="#F7A9A0"/>
<g id="Group" opacity="0.2">
<path id="Vector_5" d="M160.04 120.95L3.64001 211.25V92.4L160.04 2.09998V120.95Z" fill="black"/>
</g>
<path id="Vector_6" d="M7.81006 203.27V95.5499L155.87 10.0699V117.79L7.81006 203.27Z" fill="#0D8F6A"/>
<path id="Vector_7" d="M7.81006 200.19V203.27L155.86 117.8V10.0699L153.18 11.6199V116.26L7.81006 200.19Z" fill="#040404"/>
<g id="Group_2" opacity="0.3">
<path id="Vector_8" d="M7.81001 203.27L3.64001 211.25L160.04 120.95L155.87 117.79L7.81001 203.27Z" fill="black"/>
</g>
<g id="Group_3" opacity="0.15">
<path id="Vector_9" d="M155.87 10.07L160.04 2.09998L3.64001 92.4L7.81001 95.55L155.87 10.07Z" fill="black"/>
</g>
<path id="Vector_10" d="M0 90.3L3.64 92.4V211.25L0 209.15V90.3Z" fill="#F7A9A0"/>
<g id="Group_4" opacity="0.35">
<path id="Vector_11" d="M0 90.3L3.64 92.4V211.25L0 209.15V90.3Z" fill="black"/>
</g>
<path id="Vector_12" d="M160.04 2.1L156.4 0L0 90.3L3.64 92.4L160.04 2.1Z" fill="#F7A9A0"/>
<g id="Group_5" opacity="0.1">
<path id="Vector_13" d="M160.04 2.1L156.4 0L0 90.3L3.64 92.4L160.04 2.1Z" fill="black"/>
</g>
<path id="Vector_14" opacity="0.03" d="M23.03 119.69C22.44 119.35 29.82 107.57 30.34 106.69C31.98 103.93 37.25 104.02 37.81 107.69C38.2913 111.1 38.2509 114.563 37.69 117.96C41.9 108.23 45.29 98.04 50.82 88.96C52.75 85.8 58.97 86.77 58.44 91.03C57.15 101.42 54.37 111.36 51.25 121.26C57.15 105.42 61.18 88.71 64.32 72.78C65.21 68.27 72.55 69.28 72.32 73.87C71.9168 83.4724 70.8038 93.0318 68.99 102.47C70.4 98.94 71.76 95.38 73.11 91.82C74.94 86.97 82.25 88.82 80.99 93.99C80.52 95.99 79.99 97.99 79.56 99.92C81.49 95.39 83.38 90.85 85.19 86.27C86.71 82.41 93.89 82.38 93.19 87.35C93.19 87.72 93.08 88.07 93.03 88.44V88.51C92.7833 90.29 92.4866 92.0567 92.14 93.81C94.35 88.35 96.41 82.81 98.37 77.28C100.62 70.9 101.95 63.28 105.73 57.61C106.1 57.006 106.619 56.5071 107.237 56.1609C107.855 55.8148 108.552 55.633 109.26 55.633C109.968 55.633 110.665 55.8148 111.283 56.1609C111.901 56.5071 112.42 57.006 112.79 57.61C116.09 62.82 114.12 68.79 112.87 74.48C111.027 82.7697 108.73 90.952 105.99 98.99C104.78 102.59 103.49 106.16 102.15 109.72C104.29 106.29 106.35 102.81 108.29 99.27C116.11 85 119.65 69.27 126.66 54.73C128.43 51.04 134.42 52.87 134.28 56.79C133.85 68.74 130.75 80 126.28 91.05C124.76 94.84 123.11 98.57 121.45 102.3C126.47 95.06 131.257 87.65 135.81 80.07C137.48 77.28 142.64 77.44 143.28 81.07C144.565 87.893 144.246 94.9211 142.35 101.6C140.92 106.66 133.03 104.51 134.47 99.43C134.75 98.43 134.97 97.43 135.17 96.51C127.524 108.258 119.279 119.607 110.47 130.51C108.27 133.23 103.25 131.01 103.47 127.62C103.651 125.335 104.046 123.072 104.65 120.86C99.25 128.97 93.47 136.86 87.7 144.69C84.55 148.97 78.56 145.4 80.64 140.56C84 132.76 87.34 124.94 90.51 117.06C85.5625 126.916 79.7956 136.339 73.27 145.23C72.7147 146.151 71.8191 146.816 70.7771 147.081C69.7351 147.347 68.6305 147.191 67.7023 146.648C66.7742 146.105 66.0972 145.219 65.8179 144.18C65.5386 143.142 65.6795 142.035 66.21 141.1C67.44 138.49 68.67 135.88 69.88 133.26C69.3798 133.485 68.84 133.61 68.2916 133.626C67.7432 133.643 67.1969 133.551 66.6841 133.356C66.1714 133.161 65.7021 132.866 65.3033 132.489C64.9044 132.113 64.5839 131.661 64.36 131.16C62.95 133.59 61.49 135.99 59.9 138.33C59.5414 138.932 59.0309 139.43 58.4196 139.772C57.8083 140.115 57.1177 140.291 56.4169 140.283C55.7161 140.275 55.0298 140.083 54.4266 139.726C53.8234 139.369 53.3245 138.86 52.98 138.25C49.081 146.782 44.3266 154.897 38.79 162.47C36.08 166.13 30.33 164.07 31.32 159.32C33.2668 150.651 35.7176 142.103 38.66 133.72C37.003 136.634 35.1382 139.424 33.08 142.07C30.78 145 26.14 142.42 26.08 139.18C26.02 134.56 27.17 130 28.26 125.45C25.67 127.87 22.58 128.92 18.81 126.79C14.33 124.16 18.44 117.1 23.03 119.69Z" fill="white"/>
<path id="Vector_15" d="M45.79 188.74C45.7676 188.263 45.6316 187.798 45.3933 187.384C45.155 186.97 44.8213 186.619 44.42 186.36C44.277 186.257 44.1091 186.193 43.9335 186.175C43.7578 186.158 43.5807 186.187 43.42 186.26L27.89 195.26L29.83 198.62L45.36 189.62C45.5011 189.523 45.6148 189.39 45.6901 189.236C45.7654 189.082 45.7998 188.911 45.79 188.74Z" fill="#FAFAFA"/>
<path id="Vector_16" d="M28.89 195.36C29.2913 195.619 29.625 195.97 29.8633 196.384C30.1016 196.798 30.2376 197.263 30.26 197.74C30.26 198.62 29.65 198.98 28.89 198.54C28.4896 198.279 28.1561 197.928 27.9164 197.514C27.6767 197.101 27.5375 196.637 27.51 196.16C27.51 195.24 28.15 194.89 28.89 195.36Z" fill="#E6E6E6"/>
</g>
</svg>
