<svg width="46" height="63" viewBox="0 0 46 63" fill="none" xmlns="http://www.w3.org/2000/svg">
<g id="freepik--Backpack--inject-147">
<g id="freepik--backpack--inject-147">
<path id="Vector" d="M18.5499 0.139785C15.2799 -0.110215 7.60995 4.31976 6.30995 6.79976C5.00995 9.27976 -1.49004 45.3198 1.09996 48.8698C4.34996 53.3198 21.1 62.6398 28.64 62.8698C34.87 63.0398 41.13 57.6698 42.17 56.0598C43.89 53.4298 44.11 16.0598 42.32 12.8298C39.42 7.52976 22.7199 0.449785 18.5499 0.139785Z" fill="#93FF91"/>
<path id="Vector_2" opacity="0.2" d="M18.5499 0.139785C15.2799 -0.110215 7.60995 4.31976 6.30995 6.79976C5.00995 9.27976 -1.49004 45.3198 1.09996 48.8698C4.34996 53.3198 21.1 62.6398 28.64 62.8698C34.87 63.0398 41.13 57.6698 42.17 56.0598C43.89 53.4298 44.11 16.0598 42.32 12.8298C39.42 7.52976 22.7199 0.449785 18.5499 0.139785Z" fill="white"/>
<path id="Vector_3" opacity="0.1" d="M43.5598 31.8199C43.5598 30.2499 43.5598 28.7098 43.5598 27.2098C43.5598 26.6098 43.5598 26.0198 43.5598 25.4398C43.5598 24.2799 43.4899 23.1599 43.4499 22.0999C43.4499 21.5699 43.3999 21.0998 43.3799 20.5598C43.3799 19.8098 43.2998 19.0899 43.2498 18.4199C43.1998 17.7499 43.1499 17.1298 43.0999 16.5598L42.9998 15.9998C42.9468 14.9073 42.7311 13.8287 42.3598 12.7998C42.2798 12.6498 42.1798 12.4999 42.0798 12.3499L41.9698 12.1999L41.7398 11.8899L41.5898 11.7098C41.5098 11.6098 41.4198 11.5199 41.3298 11.4199L41.1599 11.2299L40.7398 10.8199L40.4398 10.5399L40.2398 10.3598L39.8899 10.0699L39.7198 9.91986L39.3098 9.59985C36.3098 10.5999 33.4598 11.5999 33.3698 11.6999C32.2951 12.3563 31.4139 13.2864 30.8165 14.3951C30.2191 15.5037 29.927 16.7512 29.9698 18.0099L28.9099 36.4998L28.7998 38.2599C28.6998 40.7099 25.2698 63.2599 32.2698 62.3199H32.5498C37.2998 60.9399 41.3898 57.3198 42.2098 56.0598C42.4048 55.6777 42.5333 55.2651 42.5898 54.8398C42.5898 54.5998 42.6798 54.3399 42.7198 54.0399C42.7198 53.8899 42.7699 53.7398 42.7899 53.5798C42.8499 53.0998 42.9098 52.5799 42.9598 51.9799L43.0198 51.3698C43.2798 48.2698 43.4598 43.9698 43.5498 39.3698C43.5498 38.4498 43.5498 37.5099 43.5498 36.5699C43.5498 35.9499 43.5498 35.3198 43.5498 34.6898C43.5498 34.3699 43.5498 34.0598 43.5498 33.7398C43.5698 33.0698 43.5698 32.4399 43.5598 31.8199Z" fill="black"/>
<path id="Vector_4" opacity="0.4" d="M42.8199 14.8898C42.7602 14.1718 42.5916 13.467 42.3199 12.7998C39.4199 7.52976 22.7199 0.449785 18.5499 0.139785C15.2799 -0.110215 7.60988 4.31976 6.30988 6.79976C5.90543 7.86408 5.59427 8.96154 5.37988 10.0798C11.7199 13.9298 28.1599 22.6298 29.9299 22.0798C32.1099 21.4298 42.6199 15.1698 42.8199 14.8798V14.8898Z" fill="black"/>
<path id="Vector_5" d="M21.13 42.51C17.76 40.68 10.29 35.8499 8.20001 34.7399C7.85217 34.5102 7.44988 34.3764 7.03378 34.3518C6.61767 34.3272 6.20244 34.4128 5.82998 34.5999C5.50998 34.7999 4.40999 35.4899 4.11999 35.5999C3.88975 35.7298 3.69527 35.9146 3.55392 36.138C3.41257 36.3614 3.32877 36.6163 3.30999 36.8799C3.03999 40.7899 2.86001 42.4 2.92001 44.29C2.89369 45.0593 3.06343 45.8227 3.4133 46.5085C3.76316 47.1942 4.28164 47.7797 4.92001 48.2099C6.73001 49.6799 14.63 54.4799 16.97 55.7799C19.31 57.0799 21.56 57.9399 22.58 57.2699C22.85 57.0899 24.04 56.3999 24.36 56.1899C24.5257 56.0672 24.6583 55.9051 24.7456 55.7183C24.8329 55.5315 24.8722 55.3258 24.86 55.1199C24.94 53.1199 25.25 48.8499 25.34 47.3999C25.49 45.6499 24.69 44.43 21.13 42.51Z" fill="#93FF91"/>
<path id="Vector_6" opacity="0.3" d="M21.13 42.51C17.76 40.68 10.29 35.8499 8.20001 34.7399C7.85217 34.5102 7.44988 34.3764 7.03378 34.3518C6.61767 34.3272 6.20244 34.4128 5.82998 34.5999C5.50998 34.7999 4.40999 35.4899 4.11999 35.5999C3.88975 35.7298 3.69527 35.9146 3.55392 36.138C3.41257 36.3614 3.32877 36.6163 3.30999 36.8799C3.03999 40.7899 2.86001 42.4 2.92001 44.29C2.89369 45.0593 3.06343 45.8227 3.4133 46.5085C3.76316 47.1942 4.28164 47.7797 4.92001 48.2099C6.73001 49.6799 14.63 54.4799 16.97 55.7799C19.31 57.0799 21.56 57.9399 22.58 57.2699C22.85 57.0899 24.04 56.3999 24.36 56.1899C24.5257 56.0672 24.6583 55.9051 24.7456 55.7183C24.8329 55.5315 24.8722 55.3258 24.86 55.1199C24.94 53.1199 25.25 48.8499 25.34 47.3999C25.49 45.6499 24.69 44.43 21.13 42.51Z" fill="black"/>
<path id="Vector_7" opacity="0.4" d="M23.3499 46.89L25.1499 45.89C24.7099 44.82 23.5699 43.83 21.1499 42.51C17.7799 40.68 10.3099 35.8499 8.21991 34.7399C7.87207 34.5102 7.46982 34.3764 7.05371 34.3518C6.63761 34.3272 6.22237 34.4128 5.84991 34.5999C5.52991 34.7999 4.42992 35.4899 4.13992 35.5999C3.79203 35.7927 3.5309 36.1111 3.40991 36.4899L23.3499 46.89Z" fill="black"/>
<path id="Vector_8" d="M3.30999 36.9298C3.03999 40.8398 2.86001 42.4498 2.92001 44.3398C2.89369 45.1092 3.06343 45.8727 3.4133 46.5584C3.76316 47.2441 4.28164 47.8296 4.92001 48.2599C6.73001 49.7299 14.63 54.5298 16.97 55.8298C19.85 57.4098 22.97 58.5498 23.1 56.2498C23.18 54.2498 23.48 49.9898 23.58 48.5298C23.7 46.7298 22.9 45.5298 19.34 43.5898C15.96 41.7598 8.49 36.9299 6.41 35.8199C4.68 34.8799 3.39999 35.7598 3.30999 36.9298Z" fill="#93FF91"/>
<path id="Vector_9" opacity="0.18" d="M3.30999 36.9298C3.03999 40.8398 2.86001 42.4498 2.92001 44.3398C2.89369 45.1092 3.06343 45.8727 3.4133 46.5584C3.76316 47.2441 4.28164 47.8296 4.92001 48.2599C6.73001 49.7299 14.63 54.5298 16.97 55.8298C19.85 57.4098 22.97 58.5498 23.1 56.2498C23.18 54.2498 23.48 49.9898 23.58 48.5298C23.7 46.7298 22.9 45.5298 19.34 43.5898C15.96 41.7598 8.49 36.9299 6.41 35.8199C4.68 34.8799 3.39999 35.7598 3.30999 36.9298Z" fill="black"/>
<path id="Vector_10" d="M25.15 45.8898C24.81 44.8898 23.09 45.5298 22.69 46.8898C22.29 48.2498 22.29 50.0498 22.1 50.6398C21.91 51.2298 3.41004 40.2098 2.91004 39.5898C2.68004 39.2998 2.97003 36.0097 3.65003 35.4297C4.33003 34.8497 5.90003 33.8198 6.93003 34.0298C7.96003 34.2398 19.17 41.0297 21.36 42.2097C23.55 43.3897 25.28 44.6098 25.15 45.8898Z" fill="#93FF91"/>
<path id="Vector_11" opacity="0.1" d="M25.15 45.8898C24.81 44.8898 23.09 45.5298 22.69 46.8898C22.29 48.2498 22.29 50.0498 22.1 50.6398C21.91 51.2298 3.41004 40.2098 2.91004 39.5898C2.68004 39.2998 2.97003 36.0097 3.65003 35.4297C4.33003 34.8497 5.90003 33.8198 6.93003 34.0298C7.96003 34.2398 19.17 41.0297 21.36 42.2097C23.55 43.3897 25.28 44.6098 25.15 45.8898Z" fill="black"/>
<path id="Vector_12" d="M16.37 49.3198L18.6 50.5398C18.6559 50.5777 18.7204 50.6009 18.7876 50.6072C18.8548 50.6134 18.9225 50.6026 18.9844 50.5756C19.0463 50.5487 19.1003 50.5065 19.1415 50.453C19.1827 50.3995 19.2097 50.3365 19.22 50.2698L19.51 49.1398C19.5372 49.0119 19.5239 48.8786 19.472 48.7585C19.42 48.6385 19.3319 48.5376 19.22 48.4698L17 47.2098C16.9444 47.1742 16.8808 47.1529 16.8149 47.1479C16.749 47.1429 16.6829 47.1542 16.6225 47.1809C16.5621 47.2077 16.5092 47.249 16.4686 47.3012C16.4281 47.3533 16.4011 47.4147 16.39 47.4798L16.1 48.6598C16.0716 48.7843 16.0823 48.9144 16.1306 49.0325C16.1789 49.1507 16.2625 49.251 16.37 49.3198Z" fill="#0D8F6A"/>
<path id="Vector_13" d="M5.34996 42.7297L7.57994 43.9497C7.63662 43.9873 7.70175 44.0101 7.76945 44.0162C7.83715 44.0223 7.90533 44.0115 7.96781 43.9847C8.0303 43.9579 8.08512 43.916 8.12739 43.8628C8.16966 43.8096 8.19803 43.7467 8.20994 43.6797L8.48994 42.5497C8.51715 42.4218 8.50385 42.2885 8.45188 42.1684C8.39992 42.0484 8.31188 41.9475 8.19996 41.8797L5.99995 40.6197C5.9443 40.5841 5.88071 40.5628 5.81483 40.5578C5.74895 40.5528 5.68283 40.5641 5.62242 40.5909C5.562 40.6176 5.50914 40.6589 5.46858 40.711C5.42801 40.7632 5.40101 40.8246 5.38996 40.8897L5.09996 42.0697C5.07098 42.1921 5.0793 42.3204 5.12385 42.438C5.16841 42.5557 5.24716 42.6573 5.34996 42.7297Z" fill="#0D8F6A"/>
<path id="Vector_14" opacity="0.15" d="M2.35986 26.6298C2.78986 23.7898 3.04987 21.8498 3.51987 19.4698C4.44987 18.8198 5.72989 18.0098 5.72989 18.0098L13.7299 20.8098L21.1899 23.4398L22.8899 24.0298C23.4199 24.2198 23.9499 24.5498 24.4799 24.6998C25.8399 25.0698 27.8799 23.9697 28.9199 23.1797C29.9599 22.3897 30.5899 21.6498 31.9199 21.3698C31.7399 23.9498 31.5332 26.5297 31.2999 29.1097C31.2557 31.544 30.8892 33.9617 30.2099 36.2997C30.007 36.8871 29.6614 37.4148 29.2041 37.8354C28.7467 38.2561 28.1921 38.5566 27.5899 38.7097C26.152 39.0098 24.6677 39.0098 23.2299 38.7097C23.2299 38.7097 23.0199 40.8897 22.7699 41.9597C22.5767 42.3545 22.3064 42.7065 21.9749 42.9951C21.6434 43.2836 21.2575 43.5028 20.8399 43.6398C19.5799 43.3098 19.5799 37.3997 19.5799 37.3997L10.1099 32.2697C10.1099 32.2697 9.76987 34.3898 9.45987 35.4198C8.92987 36.2398 7.91987 37.1397 7.54987 37.0497C5.95987 36.6397 6.64987 30.2898 6.64987 30.2898C4.99809 29.3566 3.54154 28.114 2.35986 26.6298Z" fill="black"/>
<path id="Vector_15" d="M18.2099 0.119849C14.6199 -0.110151 8.02994 3.16987 6.02994 5.88987C4.02994 8.60987 1.36994 22.2898 2.55994 24.7998C3.74994 27.3098 13.4999 33.0599 19.4099 35.9099C24.1399 38.1899 26.61 37.6599 28.51 36.7199C29.93 36.0099 29.98 33.7199 30.17 31.9799C30.66 27.5599 31.2899 19.6399 34.1199 17.1999C36.9499 14.7599 42.12 12.8898 42.82 14.8998C42.82 14.8998 43.82 11.9999 38.45 8.80985C29.59 3.52985 22.6399 0.389849 18.2099 0.119849Z" fill="#93FF91"/>
<path id="Vector_16" opacity="0.1" d="M18.2099 0.119849C14.6199 -0.110151 8.02994 3.16987 6.02994 5.88987C4.02994 8.60987 1.36994 22.2898 2.55994 24.7998C3.74994 27.3098 13.4999 33.0599 19.4099 35.9099C24.1399 38.1899 26.61 37.6599 28.51 36.7199C29.93 36.0099 29.98 33.7199 30.17 31.9799C30.66 27.5599 31.2899 19.6399 34.1199 17.1999C36.9499 14.7599 42.12 12.8898 42.82 14.8998C42.82 14.8998 43.82 11.9999 38.45 8.80985C29.59 3.52985 22.6399 0.389849 18.2099 0.119849Z" fill="black"/>
<path id="Vector_17" d="M20.0598 28.4199L23.1898 29.8399C23.1898 29.8399 22.1898 37.5899 21.9598 41.4099C21.9598 41.4099 21.1098 43.0099 20.3998 43.2399C19.6898 43.4699 18.8798 41.5699 18.8198 40.1799C19.0221 36.2405 19.436 32.3149 20.0598 28.4199Z" fill="#455A64"/>
<path id="Vector_18" d="M19.92 29.1697L23.11 30.5097C23.1919 30.5489 23.2822 30.5676 23.3729 30.5642C23.4637 30.5608 23.5522 30.5353 23.631 30.4901C23.7097 30.4448 23.7763 30.3811 23.8249 30.3043C23.8735 30.2276 23.9027 30.1402 23.91 30.0497L24.14 28.4797C24.1569 28.3034 24.1189 28.1261 24.0311 27.9722C23.9434 27.8182 23.8103 27.6951 23.65 27.6197L20.45 26.2297C20.3699 26.1877 20.2804 26.1665 20.1899 26.1681C20.0994 26.1696 20.0107 26.194 19.932 26.2388C19.8533 26.2836 19.7872 26.3474 19.7397 26.4245C19.6921 26.5015 19.6648 26.5893 19.66 26.6797L19.43 28.3197C19.4107 28.4951 19.4479 28.672 19.536 28.8249C19.6241 28.9777 19.7586 29.0985 19.92 29.1697Z" fill="#0D8F6A"/>
<path id="Vector_19" d="M20.4799 38.6498C20.73 38.7893 20.9375 38.9942 21.0802 39.2426C21.2229 39.4909 21.2953 39.7734 21.2899 40.0598C21.298 40.1739 21.2754 40.2882 21.2244 40.3906C21.1734 40.493 21.0959 40.5799 20.9999 40.6422C20.9039 40.7045 20.793 40.7399 20.6786 40.7447C20.5643 40.7496 20.4508 40.7237 20.3499 40.6698C20.0952 40.533 19.8841 40.3272 19.7409 40.0761C19.5977 39.825 19.528 39.5386 19.5399 39.2498C19.5799 38.6898 19.9999 38.4098 20.4799 38.6498Z" fill="#E0E0E0"/>
<path id="Vector_20" d="M7.13991 21.9099L10.1899 23.4899C10.1899 23.4899 9.28988 31.1499 8.85988 34.9499C8.85988 34.9499 7.92988 36.5099 7.20988 36.6899C6.48988 36.8699 5.7799 34.9499 5.7899 33.5499C5.99236 29.6452 6.44328 25.7573 7.13991 21.9099Z" fill="#455A64"/>
<path id="Vector_21" d="M6.99992 22.6498L10.1199 24.1498C10.1993 24.1952 10.2888 24.2201 10.3803 24.2222C10.4717 24.2243 10.5622 24.2036 10.6437 24.1619C10.7251 24.1202 10.7948 24.0588 10.8465 23.9834C10.8983 23.9079 10.9304 23.8208 10.9399 23.7298L11.2499 22.1798C11.2761 22.0043 11.248 21.825 11.1693 21.6659C11.0907 21.5068 10.9653 21.3756 10.8099 21.2898L7.67992 19.7398C7.60198 19.6941 7.51382 19.6688 7.42354 19.666C7.33326 19.6633 7.24372 19.6832 7.16313 19.724C7.08254 19.7648 7.01349 19.8251 6.96227 19.8995C6.91104 19.9739 6.87928 20.06 6.86992 20.1498L6.55992 21.7698C6.52984 21.9442 6.55632 22.1237 6.63548 22.282C6.71464 22.4403 6.84233 22.5692 6.99992 22.6498Z" fill="#0D8F6A"/>
<path id="Vector_22" d="M7.51987 32.1099C7.764 32.2633 7.96185 32.4802 8.0922 32.7374C8.22255 32.9945 8.28051 33.2823 8.25989 33.5699C8.26573 33.6889 8.23826 33.8071 8.18058 33.9113C8.12289 34.0155 8.03727 34.1015 7.93336 34.1597C7.82945 34.2179 7.71136 34.2459 7.59238 34.2406C7.47341 34.2354 7.35826 34.197 7.25989 34.1299C7.01363 33.9794 6.8146 33.7627 6.68552 33.5046C6.55645 33.2464 6.50253 32.9572 6.52988 32.6699C6.61988 32.0999 7.04987 31.8499 7.51987 32.1099Z" fill="#E0E0E0"/>
<path id="Vector_23" d="M44.4999 39.2399C44.3099 39.1299 41.5599 36.8199 41.2399 36.6399C40.6699 36.3099 31.8599 41.6399 31.0199 42.5399C30.4299 43.1899 30.7199 53.7399 31.0199 54.5399C31.1199 54.8099 34.1799 56.8599 34.2799 57.1399C34.5699 57.9099 43.8699 52.5399 44.4999 51.1399C45.1299 49.7399 45.3399 39.7199 44.4999 39.2399Z" fill="#93FF91"/>
<path id="Vector_24" opacity="0.18" d="M44.4999 39.2399C44.3099 39.1299 41.5599 36.8199 41.2399 36.6399C40.6699 36.3099 31.8599 41.6399 31.0199 42.5399C30.4299 43.1899 30.7199 53.7399 31.0199 54.5399C31.1199 54.8099 34.1799 56.8599 34.2799 57.1399C34.5699 57.9099 43.8699 52.5399 44.4999 51.1399C45.1299 49.7399 45.3399 39.7199 44.4999 39.2399Z" fill="black"/>
<path id="Vector_25" d="M34.2799 45.1398C33.6999 45.7898 33.9899 56.3398 34.2799 57.1398C34.5699 57.9398 43.8699 52.5398 44.4999 51.1398C45.1299 49.7398 45.3399 39.7398 44.4999 39.2598C43.9299 38.9098 35.1199 44.1998 34.2799 45.1398Z" fill="#93FF91"/>
<path id="Vector_26" opacity="0.4" d="M41.24 36.6398C41.56 36.8198 44.31 39.1298 44.5 39.2398C43.93 38.9098 35.12 44.2398 34.28 45.1398L31.02 42.5398C31.86 41.5998 40.67 36.3098 41.24 36.6398Z" fill="black"/>
<path id="Vector_27" opacity="0.3" d="M34.2799 45.1398C33.6999 45.7898 33.9899 56.3398 34.2799 57.1398C34.5699 57.9398 43.8699 52.5398 44.4999 51.1398C45.1299 49.7398 45.3399 39.7398 44.4999 39.2598C43.9299 38.9098 35.1199 44.1998 34.2799 45.1398Z" fill="black"/>
<path id="Vector_28" d="M31 42.54C31.65 42.16 33.49 43.27 34.27 44.01C35.05 44.75 35.77 48.1 37.85 48.73C39.93 49.36 43.05 46.73 43.77 44.98C44.49 43.23 45.43 39.5099 44.48 38.1099C44.0638 37.4027 43.411 36.8653 42.637 36.5927C41.863 36.3201 41.0176 36.3297 40.25 36.62C38.73 37.35 31.29 40.9 31 42.54Z" fill="#93FF91"/>
<path id="Vector_29" opacity="0.2" d="M31 42.54C31.65 42.16 33.49 43.27 34.27 44.01C35.05 44.75 35.77 48.1 37.85 48.73C39.93 49.36 43.05 46.73 43.77 44.98C44.49 43.23 45.43 39.5099 44.48 38.1099C44.0638 37.4027 43.411 36.8653 42.637 36.5927C41.863 36.3201 41.0176 36.3297 40.25 36.62C38.73 37.35 31.29 40.9 31 42.54Z" fill="black"/>
<path id="Vector_30" d="M40.44 44.4899C40.1891 44.6311 39.9812 44.8378 39.8386 45.0879C39.6959 45.3379 39.6238 45.6221 39.63 45.9099C39.6219 46.0241 39.6445 46.1383 39.6955 46.2407C39.7465 46.3431 39.824 46.43 39.92 46.4923C40.016 46.5546 40.1269 46.5901 40.2412 46.5949C40.3556 46.5998 40.4691 46.5739 40.57 46.5199C40.8232 46.3813 41.0329 46.1752 41.1759 45.9245C41.3189 45.6738 41.3896 45.3884 41.38 45.0999C41.34 44.5299 40.92 44.2599 40.44 44.4899Z" fill="#0D8F6A"/>
</g>
</g>
</svg>
