<svg width="110" height="108" viewBox="0 0 110 108" fill="none" xmlns="http://www.w3.org/2000/svg">
<g id="freepik--Pictures--inject-147">
<g id="freepik--picture--inject-147">
<g id="freepik--frame--inject-147">
<path id="Vector" d="M69.3 62.9699L71 63.9799L105.96 43.7999L104.25 42.7799L69.3 62.9699Z" fill="#FAFAFA"/>
<path id="Vector_2" d="M104.25 42.78L71 61.98V27.16L104.25 7.97998V42.78Z" fill="#494949"/>
<path id="Vector_3" d="M109.17 1.40991L67.79 25.2999V69.5499L109.17 45.6599V1.40991ZM106 43.7999L71 63.9999V27.1599L106 6.99991V43.7999Z" fill="#F0F0F0"/>
<path id="Vector_4" d="M105.96 43.8L104.25 42.78V7.97998L105.96 6.97998V43.8Z" fill="#E0E0E0"/>
<path id="Vector_5" d="M109.17 1.40992L107.44 0.419922L66.0601 24.3099L67.7901 25.2999L109.17 1.40992Z" fill="#FAFAFA"/>
<path id="Vector_6" d="M66.0601 24.3099L67.7901 25.2999V69.5499L66.0601 68.5599V24.3099Z" fill="#E0E0E0"/>
</g>
<g id="freepik--land--inject-147">
<path id="Vector_7" d="M102.96 41.74L72.3 59.44V50.59L79.96 32.89L84.74 37.32L83.02 44.74L93.61 22.1L102.96 32.89V41.74Z" fill="#F0F0F0"/>
<path id="Vector_8" d="M84.4501 24.35C83.7898 24.7786 83.2401 25.357 82.8457 26.0382C82.4512 26.7194 82.2232 27.4841 82.1801 28.27C82.1801 29.72 83.1801 30.27 84.4501 29.58C85.1103 29.1514 85.66 28.573 86.0544 27.8918C86.4489 27.2107 86.6769 26.446 86.7201 25.66C86.7201 24.21 85.7001 23.62 84.4501 24.35Z" fill="#F0F0F0"/>
</g>
</g>
<g id="freepik--picture--inject-147_2">
<g id="freepik--frame--inject-147_2">
<path id="Vector_9" d="M3.57007 100.89L5.27007 101.9L40.2301 81.72L38.5301 80.7L3.57007 100.89Z" fill="#FAFAFA"/>
<path id="Vector_10" d="M38.53 80.7L5.27002 99.9V65.08L38.53 45.9V80.7Z" fill="#494949"/>
<path id="Vector_11" d="M43.4501 39.33L2.06006 63.22V107.47L43.4501 83.58V39.33ZM40.2301 81.72L5.23006 101.9V65.08L40.2301 44.9V81.72Z" fill="#F0F0F0"/>
<path id="Vector_12" d="M40.23 81.72L38.53 80.7V45.9L40.23 44.9V81.72Z" fill="#E0E0E0"/>
<path id="Vector_13" d="M43.4501 39.33L41.7201 38.34L0.330078 62.23L2.06008 63.22L43.4501 39.33Z" fill="#FAFAFA"/>
<path id="Vector_14" d="M0.330078 62.23L2.06008 63.22V107.47L0.330078 106.48V62.23Z" fill="#E0E0E0"/>
</g>
<g id="freepik--land--inject-147_2">
<path id="Vector_15" d="M37.2301 79.66L6.57007 97.36V88.51L14.2401 70.81L19.0101 75.24L17.3001 82.66L27.8801 60.02L37.2301 70.81V79.66Z" fill="#F0F0F0"/>
<path id="Vector_16" d="M18.7201 62.2701C18.0604 62.7008 17.5118 63.2813 17.1191 63.9642C16.7263 64.6472 16.5005 65.4133 16.4601 66.2001C16.4601 67.6401 17.4601 68.2001 18.7201 67.5101C19.3835 67.0816 19.936 66.5021 20.3323 65.819C20.7286 65.1359 20.9574 64.3687 21.0001 63.5801C21.0001 62.1301 20.0001 61.5501 18.7201 62.2701Z" fill="#F0F0F0"/>
</g>
</g>
</g>
</svg>
