<svg width="118" height="162" viewBox="0 0 118 162" fill="none" xmlns="http://www.w3.org/2000/svg">
<g id="freepik--Window--inject-147">
<g id="freepik--window--inject-147">
<path id="Vector" d="M8.20508 12.7865L109.955 71.5821V149.573L8.20508 90.7878V12.7865Z" fill="#93C0EC" stroke="black" stroke-width="0.25"/>
<path id="Vector_2" d="M8.08109 91.0049L109.955 149.872V152.713L5.65719 92.4484L8.08109 91.0049Z" fill="#FAFAFA" stroke="black" stroke-width="0.25"/>
<path id="Vector_3" d="M5.43264 10.9218L5.24501 10.8134L5.24512 11.0301L5.28513 92.4501L5.28516 92.5222L5.34759 92.5583L110.018 153.038L110.205 153.147V152.93V71.5101V71.4379L110.143 71.4018L5.43264 10.9218ZM0.495117 2.52663L114.945 68.6422V161.403L0.495117 95.2879V2.52663Z" fill="#F0F0F0" stroke="black" stroke-width="0.25"/>
<path id="Vector_4" d="M7.95514 90.789L5.53516 92.2301V11.2464L7.95514 12.6422V90.789Z" fill="#E0E0E0" stroke="black" stroke-width="0.25"/>
<path id="Vector_5" d="M115.07 68.4258L0.62034 2.31019L3.07999 0.894297L117.529 67.0194L115.07 68.4258Z" fill="#FAFAFA" stroke="black" stroke-width="0.25"/>
<path id="Vector_6" d="M115.195 161.405V68.6425L117.655 67.2355V159.998L115.195 161.405Z" fill="#E0E0E0" stroke="black" stroke-width="0.25"/>
<path id="Vector_7" d="M8.08851 27.8992L109.955 86.7122V89.9335L5.63802 29.7072L8.08851 27.8992Z" fill="#FAFAFA" stroke="black" stroke-width="0.25"/>
<path id="Vector_8" d="M60.3652 123.904V42.9061L62.8253 44.3222V122.488L60.3652 123.904Z" fill="#E0E0E0" stroke="black" stroke-width="0.25"/>
<path id="Vector_9" d="M55.3252 121.128V40.0062L60.1152 42.7623V123.903L55.3252 121.128Z" fill="#F0F0F0" stroke="black" stroke-width="0.25"/>
<path id="Vector_10" d="M109.955 95.7128L5.53516 35.078V29.9365L109.955 90.2221V95.7128Z" fill="#F0F0F0" stroke="black" stroke-width="0.25"/>
</g>
</g>
</svg>
