<svg width="113" height="147" viewBox="0 0 113 147" fill="none" xmlns="http://www.w3.org/2000/svg">
<g id="freepik--Furniture--inject-147">
<g id="freepik--Drawer--inject-147">
<path id="Vector" d="M80.8814 144.77L78.2204 131.603L83.38 128.624L88.5297 131.603L85.8488 144.79L83.3802 146.216L80.8814 144.77Z" fill="#93C0EC" stroke="black" stroke-width="0.25"/>
<path id="Vector_2" opacity="0.05" d="M80.8814 144.77L78.2204 131.603L83.38 128.624L88.5297 131.603L85.8488 144.79L83.3802 146.216L80.8814 144.77Z" fill="black" stroke="black" stroke-width="0.25"/>
<path id="Vector_3" d="M78.2575 131.787L83.2551 134.672V146.143L80.8814 144.77L78.2575 131.787Z" fill="#FFD2EF" stroke="black" stroke-width="0.25"/>
<path id="Vector_4" opacity="0.05" d="M79.9314 140.06L78.2204 131.603L83.38 128.624L88.5297 131.603L86.8088 140.07L83.3801 142.046L79.9314 140.06Z" fill="black" stroke="black" stroke-width="0.25"/>
<path id="Vector_5" d="M104.151 131.34L101.5 118.163L106.65 115.194L111.8 118.163L109.129 131.35L106.65 132.776L104.151 131.34Z" fill="#93C0EC" stroke="black" stroke-width="0.25"/>
<path id="Vector_6" opacity="0.05" d="M104.151 131.34L101.5 118.163L106.65 115.194L111.8 118.163L109.129 131.35L106.65 132.776L104.151 131.34Z" fill="black" stroke="black" stroke-width="0.25"/>
<path id="Vector_7" d="M101.537 118.347L106.525 121.232V132.704L104.151 131.34L101.537 118.347Z" fill="#FFD2EF" stroke="black" stroke-width="0.25"/>
<path id="Vector_8" opacity="0.05" d="M103.201 126.62L101.5 118.163L106.65 115.194L111.799 118.163L110.079 126.63L106.65 128.606L103.201 126.62Z" fill="black" stroke="black" stroke-width="0.25"/>
<path id="Vector_9" opacity="0.05" d="M4.29135 100.36L1.63031 87.1934L6.78995 84.2144L11.9396 87.1933L9.25872 100.38L6.79006 101.806L4.29135 100.36Z" fill="black" stroke="black" stroke-width="0.25"/>
<path id="Vector_10" d="M1.66739 87.3769L6.66501 90.2623V101.733L4.29135 100.36L1.66739 87.3769Z" fill="#FFD2EF" stroke="black" stroke-width="0.25"/>
<path id="Vector_11" opacity="0.05" d="M3.34133 95.6499L1.63033 87.1934L6.78995 84.2144L11.9396 87.1933L10.2187 95.6599L6.78999 97.6358L3.34133 95.6499Z" fill="black" stroke="black" stroke-width="0.25"/>
<g id="freepik--Cabinet--inject-147">
<g id="freepik--cabinet--inject-147">
<path id="Vector_12" d="M112.095 123.318L83.5049 139.824V77.6924L112.095 61.1867V123.318Z" fill="#93C0EC" stroke="black" stroke-width="0.25"/>
<path id="Vector_13" d="M83.255 139.823L0.11499 91.6481V29.5071L83.255 77.6922V139.823Z" fill="#FFD2EF" stroke="black" stroke-width="0.25"/>
<path id="Vector_14" d="M111.97 60.9699L83.3801 77.4757L0.239612 29.2903L28.8399 12.7745L111.97 60.9699Z" fill="#F5F5F5" stroke="black" stroke-width="0.25"/>
<path id="Vector_15" d="M4.1825 87.9884L4.2449 87.9523L4.24487 87.8802L4.23496 65.1872L79.1349 108.612V131.378L78.4999 131.746L3.6092 88.3203L4.1825 87.9884Z" fill="#93C0EC" stroke="black" stroke-width="0.25"/>
<path id="Vector_16" d="M78.3749 131.673L3.48486 88.2481V65.6271L78.3749 109.052V131.673Z" fill="#F5F5F5" stroke="black" stroke-width="0.25"/>
<path id="Vector_17" d="M42.4075 94.1083L42.4075 94.1083L42.4089 94.1091C42.7484 94.2997 43.0387 94.5668 43.257 94.8892C43.4737 95.2093 43.6133 95.5751 43.665 95.9581C43.6639 96.1008 43.6314 96.2091 43.5813 96.2874C43.531 96.366 43.4589 96.421 43.3663 96.4512C43.1766 96.5132 42.8876 96.4731 42.5431 96.2721L42.5426 96.2718L36.9326 93.0318L36.9326 93.0318L36.9312 93.0311C36.5918 92.8405 36.3014 92.5734 36.0832 92.251C35.8665 91.9309 35.7268 91.565 35.6751 91.182C35.6763 91.0393 35.7087 90.9311 35.7589 90.8529C35.8092 90.7743 35.8816 90.7192 35.9749 90.689C36.1661 90.6269 36.4578 90.6671 36.8076 90.8683C36.8076 90.8684 36.8077 90.8684 36.8077 90.8684L42.4075 94.1083Z" fill="#93C0EC" stroke="black" stroke-width="0.25"/>
<path id="Vector_18" d="M4.1825 60.3282L4.24487 60.2921V60.2201V37.527L79.1349 80.9521V103.718L78.4999 104.086L3.6092 60.6602L4.1825 60.3282Z" fill="#93C0EC" stroke="black" stroke-width="0.25"/>
<path id="Vector_19" d="M78.3749 104.013L3.48486 60.5881V37.9671L78.3749 81.3921V104.013Z" fill="#F5F5F5" stroke="black" stroke-width="0.25"/>
<path id="Vector_20" d="M42.4176 66.4084L42.4182 66.4087C42.7555 66.601 43.0437 66.8688 43.2602 67.1911C43.4751 67.5111 43.6136 67.8762 43.665 68.2581C43.6638 68.398 43.6315 68.5042 43.5818 68.581C43.5317 68.6582 43.4596 68.7126 43.3669 68.7424C43.1768 68.8034 42.8875 68.7631 42.5431 68.5621L42.5424 68.5618L36.9324 65.3318L36.9324 65.3318L36.9317 65.3314C36.593 65.1395 36.3033 64.872 36.0851 64.5497C35.8685 64.2298 35.7283 63.8644 35.6751 63.4818C35.6763 63.3393 35.7088 63.2311 35.7589 63.1529C35.8092 63.0744 35.8816 63.0193 35.9749 62.989C36.1661 62.927 36.4578 62.9672 36.8076 63.1684C36.8077 63.1684 36.8077 63.1685 36.8077 63.1685L42.4176 66.4084Z" fill="#93C0EC" stroke="black" stroke-width="0.25"/>
</g>
</g>
<g id="freepik--Pot--inject-147">
<path id="Vector_21" d="M25.5102 29.3779C23.3314 29.3779 21.1833 28.8648 19.2397 27.8802C17.5146 26.8836 16.6802 25.5916 16.6802 24.3276C16.6802 23.0637 17.5145 21.7767 19.2395 20.7902C21.1831 19.8055 23.3313 19.2924 25.5102 19.2924C27.689 19.2924 29.8371 19.8054 31.7806 20.7901C33.5057 21.7866 34.3402 23.0786 34.3402 24.3426C34.3402 25.6065 33.5059 26.8935 31.7809 27.88C29.8373 28.8648 27.6891 29.3779 25.5102 29.3779Z" fill="#93C0EC" stroke="black" stroke-width="0.25"/>
<path id="Vector_22" d="M30.9903 24.6931L30.9899 24.6928L30.9827 24.7017C30.9676 24.7205 30.9505 24.7376 30.9317 24.7527L30.9313 24.7521L30.9217 24.7617L30.8043 24.8791L30.5401 25.1139L30.4543 25.1806L30.4534 25.1814L30.2463 25.3392C30.1224 25.4261 29.994 25.5064 29.8615 25.5796C28.4748 26.2849 26.9409 26.6525 25.3851 26.6525C23.8289 26.6525 22.2948 26.2847 20.9078 25.5792C20.7775 25.5099 20.6532 25.4302 20.5359 25.3407L20.5344 25.3396L20.3051 25.1701L20.3044 25.1696L20.2293 25.1132L19.9659 24.8791L19.8585 24.7717L19.8585 24.7717L19.7795 24.6927C19.7793 24.6925 19.7792 24.6924 19.779 24.6922C18.2818 23.1602 17.0752 20.4714 16.6182 17.8536C16.39 16.5461 16.3502 15.264 16.5506 14.1599C16.7479 13.0728 17.176 12.1683 17.8754 11.5751H32.8944C33.5863 12.1681 34.0083 13.0729 34.2012 14.1608C34.3972 15.2659 34.3546 16.5491 34.1257 17.8573C33.6674 20.477 32.4679 23.1662 30.9903 24.6931Z" fill="#FFD2EF" stroke="black" stroke-width="0.25"/>
<path id="Vector_23" d="M25.3852 19.0378C23.236 19.0378 21.1169 18.5316 19.1998 17.5601C17.4994 16.5785 16.6777 15.3114 16.6777 14.0689C16.6777 12.8263 17.4995 11.5567 19.1999 10.57C21.117 9.59863 23.236 9.09241 25.3852 9.09241C27.5345 9.09241 29.6535 9.59865 31.5707 10.5701C33.271 11.5518 34.0927 12.8188 34.0927 14.0614C34.0927 15.3039 33.271 16.5735 31.5706 17.5602C29.6534 18.5316 27.5344 19.0378 25.3852 19.0378Z" fill="#FAFAFA" stroke="black" stroke-width="0.25"/>
<path id="Vector_24" d="M25.3851 17.0425C24.0872 17.0425 22.8075 16.7368 21.6497 16.1501C20.6245 15.5586 20.1401 14.7991 20.1401 14.0651C20.1401 13.3312 20.6245 12.5717 21.6497 11.9801C22.8075 11.3935 24.0872 11.0878 25.3851 11.0878C26.6831 11.0878 27.9628 11.3935 29.1206 11.9801C30.1457 12.5717 30.6301 13.3312 30.6301 14.0651C30.6301 14.7991 30.1457 15.5586 29.1206 16.1501C27.9628 16.7368 26.6831 17.0425 25.3851 17.0425Z" fill="#F5F5F5" stroke="black" stroke-width="0.25"/>
<path id="Vector_25" d="M25.3851 13.2178C26.6836 13.2178 27.9638 13.5237 29.122 14.1108C29.5887 14.3638 29.9886 14.7234 30.2894 15.1598C29.9881 15.5933 29.5883 15.9496 29.1223 16.1993C27.964 16.7865 26.6837 17.0925 25.3851 17.0925C24.0865 17.0925 22.8061 16.7865 21.6479 16.1993C21.1819 15.9496 20.7821 15.5933 20.4808 15.1598C20.7816 14.7234 21.1815 14.3638 21.6481 14.1108C22.8063 13.5237 24.0866 13.2178 25.3851 13.2178Z" fill="#FFD2EF" stroke="black" stroke-width="0.25"/>
<path id="Vector_26" d="M21.6868 8.54336L21.7801 8.46011L21.6868 8.54338L21.9884 8.88096L21.9028 8.43647C21.6618 7.18498 21.5685 5.90953 21.6249 4.6363C21.6795 3.64378 21.8284 2.70064 22.033 1.96223C22.1354 1.59277 22.2509 1.2777 22.3738 1.03444C22.4985 0.787681 22.6237 0.629228 22.7381 0.554943C22.7662 0.536694 22.8034 0.529528 22.8669 0.555539C22.9348 0.583327 23.0196 0.64498 23.1189 0.746313C23.3162 0.94777 23.5405 1.27471 23.7687 1.67904C24.2238 2.48537 24.6778 3.56914 24.9502 4.48572C25.2246 5.40862 25.4442 6.23935 25.5951 6.83934C25.6706 7.1393 25.7288 7.38151 25.7682 7.54863C25.788 7.63218 25.8029 7.69697 25.813 7.7408L25.8243 7.79057L25.8271 7.80317L25.8278 7.80631L25.828 7.80707L25.8281 7.80725L25.8281 7.80729L25.9501 7.7801L25.8281 7.8073L26.0735 7.79999C26.3017 6.38398 26.6343 4.98679 27.0686 3.61984C27.4017 2.67551 27.7123 2.11273 27.9875 1.81051C28.1243 1.66029 28.2468 1.58053 28.3529 1.54598C28.4562 1.51229 28.5515 1.51894 28.6432 1.55599C28.8205 1.62766 29.0015 1.84291 29.1533 2.39569C29.3033 2.94224 29.4153 3.78353 29.4852 5.04595C29.531 6.2443 29.4944 7.44438 29.3757 8.63771L29.3392 9.00367L29.5911 8.73571L29.5001 8.65009L29.5911 8.7357L29.5912 8.73567L29.5913 8.73555L29.5918 8.73502L29.5938 8.7329L29.6018 8.72442L29.6332 8.69117C29.6609 8.66201 29.7016 8.61918 29.7538 8.56465C29.8582 8.45558 30.0085 8.29969 30.1918 8.11258C30.5586 7.73829 31.0574 7.23953 31.5858 6.74102C32.1137 6.24304 32.5124 5.94145 32.8171 5.79384C33.1198 5.64716 33.3016 5.66447 33.4288 5.75276C33.4722 5.78295 33.5381 5.88604 33.5656 6.12046C33.5921 6.34594 33.5795 6.66528 33.4998 7.0829C33.3405 7.91738 32.9165 9.12722 32.0307 10.7296L32.03 10.7308C31.1552 12.3536 30.0335 13.8305 28.7051 15.1088L28.6917 15.1161C28.6736 15.1258 28.6459 15.1401 28.6088 15.1581C28.5345 15.1939 28.4228 15.2441 28.2751 15.2997C27.9797 15.411 27.5408 15.5442 26.9716 15.629C25.8389 15.7978 24.187 15.7755 22.1198 15.0028C21.0603 13.9235 20.1487 12.7083 19.4091 11.389L19.4088 11.3884C18.7831 10.2848 18.4124 8.98845 18.2791 7.92333C18.2124 7.39062 18.2058 6.92119 18.2539 6.56609C18.278 6.38838 18.3152 6.24398 18.3624 6.13606C18.4102 6.02676 18.4633 5.96643 18.5119 5.93873C18.5451 5.91983 18.6135 5.91186 18.7391 5.95508C18.8598 5.99662 19.0076 6.07676 19.1751 6.18884C19.5092 6.41232 19.8992 6.74708 20.2734 7.09758C20.6466 7.4472 21.0001 7.80874 21.2605 8.08318C21.3906 8.22032 21.4974 8.33553 21.5715 8.4164C21.6086 8.45683 21.6375 8.48866 21.6571 8.51034L21.6794 8.53506L21.685 8.54134L21.6864 8.5429L21.6867 8.54328L21.6868 8.54336Z" fill="#93C0EC" stroke="black" stroke-width="0.25"/>
</g>
<g id="freepik--Picture--inject-147">
<g id="freepik--Frame--inject-147">
<path id="Vector_27" d="M58.7446 52.3613L79.2918 64.2196L78.4354 64.6288L57.8971 52.7699L58.7446 52.3613Z" fill="#FAFAFA" stroke="black" stroke-width="0.25"/>
<path id="Vector_28" d="M61.7356 22.8354L81.2878 34.1182L78.4344 63.4448L58.8822 52.1521L61.7356 22.8354Z" fill="white" stroke="black" stroke-width="0.25"/>
<path id="Vector_29" d="M60.6825 21.8918L60.5144 21.7949L60.4956 21.988L57.4956 52.708L57.4878 52.7881L57.5575 52.8284L78.3575 64.8284L78.5256 64.9253L78.5444 64.7323L81.5444 34.0123L81.5522 33.9321L81.4825 33.8918L60.6825 21.8918ZM59.0156 19.0754L83.4078 33.1581L80.0344 67.7946L55.6422 53.6822L59.0156 19.0754Z" fill="#F0F0F0" stroke="black" stroke-width="0.25"/>
<path id="Vector_30" d="M58.6323 52.138L57.7758 52.5509L60.7254 22.2464L61.4977 22.6976L58.6323 52.138Z" fill="#93C0EC" stroke="black" stroke-width="0.25"/>
<path id="Vector_31" d="M83.5461 32.9193L59.1807 18.852L60.0437 18.4508L84.4092 32.5181L83.5461 32.9193Z" fill="#FAFAFA" stroke="black" stroke-width="0.25"/>
<path id="Vector_32" d="M80.2857 67.7645L83.6576 33.1433L84.5345 32.7356L81.1626 67.3568L80.2857 67.7645Z" fill="#93C0EC" stroke="black" stroke-width="0.25"/>
</g>
<g id="freepik--Land--inject-147">
<path id="Vector_33" d="M66.965 36.5101L72.272 51.811L72.5136 51.7503L71.8511 47.5877L74.9048 42.8753L78.2237 57.2183L77.7643 61.9846L59.7524 51.592L60.2315 46.713L66.965 36.5101Z" fill="#F0F0F0" stroke="black" stroke-width="0.25"/>
<path id="Vector_34" d="M74.2913 36.4003C74.5146 36.3 74.8264 36.317 75.1779 36.4986C75.536 36.725 75.8291 37.0406 76.0286 37.4145C76.2281 37.7887 76.3269 38.2083 76.3153 38.6321C76.2775 39.0082 76.1111 39.2433 75.8932 39.3456C75.6728 39.4492 75.3652 39.4332 75.0145 39.2328C74.6554 39.0063 74.3615 38.6902 74.1617 38.3155C73.962 37.9412 73.8632 37.5213 73.875 37.0972C73.9078 36.723 74.0729 36.4984 74.2913 36.4003Z" fill="#F0F0F0" stroke="black" stroke-width="0.25"/>
</g>
</g>
</g>
</g>
</svg>
